<mxfile host="app.diagrams.net" agent="Mozilla/5.0 (X11; Linux x86_64) AppleWebKit/537.36 (KHTML, like Gecko) Chrome/131.0.0.0 Safari/537.36" version="25.0.3">
  <diagram name="Page-1" id="FeEvy2p1AGuyqbEnBzWa">
    <mxGraphModel dx="2552" dy="3585" grid="1" gridSize="10" guides="1" tooltips="1" connect="1" arrows="1" fold="1" page="0" pageScale="1" pageWidth="1100" pageHeight="850" background="none" math="0" shadow="0">
      <root>
        <mxCell id="0" />
        <mxCell id="1" parent="0" />
        <mxCell id="0i_WqfY-Rk7737szvlj9-18" value="" style="endArrow=none;html=1;rounded=0;exitX=1;exitY=0.5;exitDx=0;exitDy=0;strokeColor=#FFFFFF;endFill=0;entryX=0;entryY=0.5;entryDx=0;entryDy=0;labelBackgroundColor=none;" parent="1" edge="1">
          <mxGeometry width="50" height="50" relative="1" as="geometry">
            <mxPoint x="-459" y="-2431.19" as="sourcePoint" />
            <mxPoint x="-259" y="-2431.19" as="targetPoint" />
          </mxGeometry>
        </mxCell>
        <mxCell id="0i_WqfY-Rk7737szvlj9-17" value="" style="endArrow=none;html=1;rounded=0;exitX=1;exitY=0.5;exitDx=0;exitDy=0;strokeColor=#FFFFFF;endFill=0;entryX=0;entryY=0.5;entryDx=0;entryDy=0;labelBackgroundColor=none;" parent="1" edge="1">
          <mxGeometry width="50" height="50" relative="1" as="geometry">
            <mxPoint x="-779" y="-2431.24" as="sourcePoint" />
            <mxPoint x="-579" y="-2431.24" as="targetPoint" />
          </mxGeometry>
        </mxCell>
        <mxCell id="R4217yQQA2lsA9HlF9bg-10" value="" style="endArrow=none;html=1;rounded=0;exitX=1;exitY=0.5;exitDx=0;exitDy=0;strokeColor=#FFFFFF;endFill=0;entryX=0;entryY=0.5;entryDx=0;entryDy=0;labelBackgroundColor=none;" parent="1" edge="1">
          <mxGeometry width="50" height="50" relative="1" as="geometry">
            <mxPoint x="-940" y="-2431" as="sourcePoint" />
            <mxPoint x="-900" y="-2431" as="targetPoint" />
          </mxGeometry>
        </mxCell>
        <mxCell id="J4q1xMHX7jqLUPQSf7GN-16" value="" style="html=1;rounded=0;strokeColor=#CCCCCC;strokeWidth=1;endArrow=none;endFill=0;dashed=1;exitX=0.884;exitY=0;exitDx=0;exitDy=0;exitPerimeter=0;labelBackgroundColor=none;" parent="1" edge="1">
          <mxGeometry width="100" relative="1" as="geometry">
            <mxPoint x="41.51999999999998" y="-2540" as="sourcePoint" />
            <mxPoint x="40" y="-2172" as="targetPoint" />
          </mxGeometry>
        </mxCell>
        <mxCell id="8By_QkY793YM4N230Kt9-9" value="" style="html=1;rounded=0;strokeColor=#CCCCCC;strokeWidth=1;endArrow=none;endFill=0;dashed=1;exitX=0.117;exitY=0.001;exitDx=0;exitDy=0;exitPerimeter=0;entryX=0.133;entryY=1.001;entryDx=0;entryDy=0;entryPerimeter=0;labelBackgroundColor=none;" parent="1" edge="1">
          <mxGeometry width="100" relative="1" as="geometry">
            <mxPoint x="-920.2399999999998" y="-2539.2200000000003" as="sourcePoint" />
            <mxPoint x="-919.76" y="-1739.2000000000003" as="targetPoint" />
          </mxGeometry>
        </mxCell>
        <mxCell id="8By_QkY793YM4N230Kt9-1" value="Obfuscation" style="rounded=1;whiteSpace=wrap;html=1;strokeColor=#000000;fillColor=#CCCCCC;fontColor=#000000;fontStyle=0;labelBackgroundColor=none;" parent="1" vertex="1">
          <mxGeometry x="-1060" y="-2462" width="120" height="60" as="geometry" />
        </mxCell>
        <mxCell id="8By_QkY793YM4N230Kt9-2" value="Petrifying Visions" style="rounded=1;whiteSpace=wrap;html=1;strokeColor=#000000;fillColor=#CCCCCC;fontColor=#000000;fontStyle=0;labelBackgroundColor=none;" parent="1" vertex="1">
          <mxGeometry x="-901" y="-2380" width="120" height="60" as="geometry" />
        </mxCell>
        <mxCell id="8By_QkY793YM4N230Kt9-3" value="Visions of Darkness" style="rounded=1;whiteSpace=wrap;html=1;strokeColor=#000000;fillColor=#CCCCCC;fontColor=#000000;fontStyle=1;labelBackgroundColor=none;" parent="1" vertex="1">
          <mxGeometry x="-579" y="-2462" width="120" height="60" as="geometry" />
        </mxCell>
        <mxCell id="8By_QkY793YM4N230Kt9-98" value="&lt;font style=&quot;font-size: 10px;&quot;&gt;A&amp;nbsp;&lt;/font&gt;&lt;font style=&quot;font-size: 14px;&quot;&gt;●○○○&lt;/font&gt;" style="text;html=1;align=right;verticalAlign=bottom;resizable=0;points=[];autosize=1;fontColor=#000000;spacing=0;spacingRight=4;spacingBottom=-2;labelBackgroundColor=none;" parent="1" vertex="1">
          <mxGeometry x="-1000" y="-2422" width="60" height="20" as="geometry" />
        </mxCell>
        <mxCell id="8By_QkY793YM4N230Kt9-99" value="&lt;font style=&quot;font-size: 10px;&quot;&gt;D&amp;nbsp;&lt;/font&gt;&lt;font style=&quot;font-size: 14px;&quot;&gt;●●○○&lt;/font&gt;" style="text;html=1;align=right;verticalAlign=bottom;resizable=0;points=[];autosize=1;fontColor=#000000;spacing=0;spacingRight=4;spacingBottom=-2;labelBackgroundColor=none;" parent="1" vertex="1">
          <mxGeometry x="-851" y="-2340" width="70" height="20" as="geometry" />
        </mxCell>
        <mxCell id="8By_QkY793YM4N230Kt9-100" value="&lt;font style=&quot;font-size: 10px;&quot;&gt;D &lt;/font&gt;&lt;font style=&quot;font-size: 14px;&quot;&gt;●●○○&lt;/font&gt;" style="text;html=1;align=right;verticalAlign=bottom;resizable=0;points=[];autosize=1;fontColor=#000000;spacing=0;spacingRight=4;spacingBottom=-2;labelBackgroundColor=none;" parent="1" vertex="1">
          <mxGeometry x="-530" y="-2422" width="70" height="20" as="geometry" />
        </mxCell>
        <mxCell id="8By_QkY793YM4N230Kt9-124" value="&lt;b&gt;Intro&lt;/b&gt;" style="text;html=1;align=center;verticalAlign=middle;resizable=0;points=[];autosize=1;strokeColor=none;fillColor=none;labelPosition=center;verticalLabelPosition=middle;fontColor=#000000;labelBackgroundColor=none;" parent="1" vertex="1">
          <mxGeometry x="-1080" y="-2522" width="50" height="30" as="geometry" />
        </mxCell>
        <mxCell id="8By_QkY793YM4N230Kt9-125" value="&lt;b&gt;Basic&lt;/b&gt;" style="text;html=1;align=center;verticalAlign=middle;resizable=0;points=[];autosize=1;strokeColor=none;fillColor=none;labelPosition=center;verticalLabelPosition=middle;fontColor=#000000;labelBackgroundColor=none;" parent="1" vertex="1">
          <mxGeometry x="-920" y="-2522" width="60" height="30" as="geometry" />
        </mxCell>
        <mxCell id="8By_QkY793YM4N230Kt9-126" value="&lt;b&gt;Intermediate&lt;br&gt;&lt;/b&gt;" style="text;html=1;align=center;verticalAlign=middle;resizable=0;points=[];autosize=1;strokeColor=none;fillColor=none;labelPosition=center;verticalLabelPosition=middle;fontColor=#000000;labelBackgroundColor=none;" parent="1" vertex="1">
          <mxGeometry x="-600" y="-2522" width="90" height="30" as="geometry" />
        </mxCell>
        <mxCell id="8By_QkY793YM4N230Kt9-127" value="&lt;b&gt;Advanced&lt;br&gt;&lt;/b&gt;" style="text;html=1;align=center;verticalAlign=middle;resizable=0;points=[];autosize=1;strokeColor=none;fillColor=none;labelPosition=center;verticalLabelPosition=middle;fontColor=#000000;labelBackgroundColor=none;" parent="1" vertex="1">
          <mxGeometry x="-280" y="-2522" width="80" height="30" as="geometry" />
        </mxCell>
        <mxCell id="8By_QkY793YM4N230Kt9-128" value="&lt;b&gt;Esoteric&lt;br&gt;&lt;/b&gt;" style="text;html=1;align=center;verticalAlign=middle;resizable=0;points=[];autosize=1;strokeColor=none;fillColor=none;labelPosition=center;verticalLabelPosition=middle;fontColor=#000000;labelBackgroundColor=none;" parent="1" vertex="1">
          <mxGeometry x="40" y="-2522" width="70" height="30" as="geometry" />
        </mxCell>
        <mxCell id="8By_QkY793YM4N230Kt9-130" value="&lt;b style=&quot;color: rgb(0, 0, 0);&quot;&gt;Legend&lt;/b&gt;&lt;font color=&quot;#000000&quot;&gt;&lt;b&gt;&lt;br&gt;&lt;/b&gt;&lt;/font&gt;" style="rounded=1;whiteSpace=wrap;html=1;strokeColor=#000000;fillColor=none;verticalAlign=top;labelBackgroundColor=none;" parent="1" vertex="1">
          <mxGeometry x="-20" y="-1573" width="200" height="653" as="geometry" />
        </mxCell>
        <mxCell id="8By_QkY793YM4N230Kt9-131" value="Corruption" style="rounded=1;whiteSpace=wrap;html=1;strokeColor=default;fillColor=#CCCCCC;fontColor=#000000;labelBackgroundColor=none;" parent="1" vertex="1">
          <mxGeometry x="20" y="-1493" width="120" height="60" as="geometry" />
        </mxCell>
        <mxCell id="8By_QkY793YM4N230Kt9-133" value="Animation" style="rounded=1;whiteSpace=wrap;html=1;strokeColor=#000000;fillColor=#DEAD26;fontColor=#000000;labelBackgroundColor=none;" parent="1" vertex="1">
          <mxGeometry x="20" y="-1413" width="120" height="60" as="geometry" />
        </mxCell>
        <mxCell id="8By_QkY793YM4N230Kt9-134" value="Synthetic Creation" style="rounded=1;whiteSpace=wrap;html=1;strokeColor=#000000;fillColor=#BFFFFF;fontColor=#000000;labelBackgroundColor=none;" parent="1" vertex="1">
          <mxGeometry x="20" y="-1333" width="120" height="60" as="geometry" />
        </mxCell>
        <mxCell id="8By_QkY793YM4N230Kt9-136" value="&lt;font style=&quot;&quot;&gt;&lt;b style=&quot;font-size: 12px;&quot;&gt;Signature spells in bold&lt;/b&gt;&lt;br&gt;&lt;/font&gt;" style="text;html=1;align=center;verticalAlign=middle;resizable=0;points=[];autosize=1;strokeColor=none;fillColor=none;fontColor=#000000;labelBackgroundColor=none;" parent="1" vertex="1">
          <mxGeometry y="-1009" width="160" height="30" as="geometry" />
        </mxCell>
        <mxCell id="8By_QkY793YM4N230Kt9-150" value="&lt;font style=&quot;font-size: 12px;&quot; color=&quot;#000000&quot;&gt;&lt;i style=&quot;font-size: 12px;&quot;&gt;Special requirements in italics&lt;/i&gt;&lt;/font&gt;" style="text;html=1;align=center;verticalAlign=middle;resizable=0;points=[];autosize=1;strokeColor=none;fillColor=none;fontSize=12;labelBackgroundColor=none;" parent="1" vertex="1">
          <mxGeometry x="-10" y="-1537" width="180" height="30" as="geometry" />
        </mxCell>
        <mxCell id="J4q1xMHX7jqLUPQSf7GN-14" value="" style="html=1;rounded=0;strokeColor=#CCCCCC;strokeWidth=1;endArrow=none;endFill=0;dashed=1;entryX=0.383;entryY=0.999;entryDx=0;entryDy=0;entryPerimeter=0;labelBackgroundColor=none;" parent="1" edge="1">
          <mxGeometry width="100" relative="1" as="geometry">
            <mxPoint x="-600" y="-2540" as="sourcePoint" />
            <mxPoint x="-599.76" y="-1740.8" as="targetPoint" />
          </mxGeometry>
        </mxCell>
        <mxCell id="J4q1xMHX7jqLUPQSf7GN-15" value="" style="html=1;rounded=0;strokeColor=#CCCCCC;strokeWidth=1;endArrow=none;endFill=0;dashed=1;exitX=0.633;exitY=0;exitDx=0;exitDy=0;exitPerimeter=0;entryX=0.633;entryY=1;entryDx=0;entryDy=0;entryPerimeter=0;labelBackgroundColor=none;" parent="1" edge="1">
          <mxGeometry width="100" relative="1" as="geometry">
            <mxPoint x="-279.76" y="-2540" as="sourcePoint" />
            <mxPoint x="-279.76" y="-1740" as="targetPoint" />
          </mxGeometry>
        </mxCell>
        <mxCell id="CHL94sCa6Dml9rrqsUCZ-2" value="&lt;b&gt;Intro&lt;/b&gt;" style="text;html=1;align=center;verticalAlign=middle;resizable=0;points=[];autosize=1;strokeColor=none;fillColor=none;labelPosition=center;verticalLabelPosition=middle;fontColor=#FFFFFF;labelBackgroundColor=none;" parent="1" vertex="1">
          <mxGeometry x="-1080" y="-2512" width="50" height="30" as="geometry" />
        </mxCell>
        <mxCell id="CHL94sCa6Dml9rrqsUCZ-3" value="&lt;b&gt;Basic&lt;/b&gt;" style="text;html=1;align=center;verticalAlign=middle;resizable=0;points=[];autosize=1;strokeColor=none;fillColor=none;labelPosition=center;verticalLabelPosition=middle;fontColor=#FFFFFF;labelBackgroundColor=none;" parent="1" vertex="1">
          <mxGeometry x="-920" y="-2512" width="60" height="30" as="geometry" />
        </mxCell>
        <mxCell id="CHL94sCa6Dml9rrqsUCZ-4" value="&lt;b&gt;Intermediate&lt;br&gt;&lt;/b&gt;" style="text;html=1;align=center;verticalAlign=middle;resizable=0;points=[];autosize=1;strokeColor=none;fillColor=none;labelPosition=center;verticalLabelPosition=middle;fontColor=#FFFFFF;labelBackgroundColor=none;" parent="1" vertex="1">
          <mxGeometry x="-600" y="-2512" width="90" height="30" as="geometry" />
        </mxCell>
        <mxCell id="CHL94sCa6Dml9rrqsUCZ-5" value="&lt;b&gt;Advanced&lt;br&gt;&lt;/b&gt;" style="text;html=1;align=center;verticalAlign=middle;resizable=0;points=[];autosize=1;strokeColor=none;fillColor=none;labelPosition=center;verticalLabelPosition=middle;fontColor=#FFFFFF;labelBackgroundColor=none;" parent="1" vertex="1">
          <mxGeometry x="-280" y="-2512" width="80" height="30" as="geometry" />
        </mxCell>
        <mxCell id="CHL94sCa6Dml9rrqsUCZ-6" value="&lt;b&gt;Esoteric&lt;br&gt;&lt;/b&gt;" style="text;html=1;align=center;verticalAlign=middle;resizable=0;points=[];autosize=1;strokeColor=none;fillColor=none;labelPosition=center;verticalLabelPosition=middle;fontColor=#FFFFFF;labelBackgroundColor=none;" parent="1" vertex="1">
          <mxGeometry x="40" y="-2512" width="70" height="30" as="geometry" />
        </mxCell>
        <mxCell id="CHL94sCa6Dml9rrqsUCZ-14" value="&lt;b&gt;Intro&lt;/b&gt;" style="text;html=1;align=center;verticalAlign=middle;resizable=0;points=[];autosize=1;strokeColor=none;fillColor=none;labelPosition=center;verticalLabelPosition=middle;fontColor=#FFFFFF;labelBackgroundColor=none;" parent="1" vertex="1">
          <mxGeometry x="-1080" y="-2512" width="50" height="30" as="geometry" />
        </mxCell>
        <mxCell id="CHL94sCa6Dml9rrqsUCZ-15" value="&lt;b&gt;Basic&lt;/b&gt;" style="text;html=1;align=center;verticalAlign=middle;resizable=0;points=[];autosize=1;strokeColor=none;fillColor=none;labelPosition=center;verticalLabelPosition=middle;fontColor=#FFFFFF;labelBackgroundColor=none;" parent="1" vertex="1">
          <mxGeometry x="-920" y="-2512" width="60" height="30" as="geometry" />
        </mxCell>
        <mxCell id="CHL94sCa6Dml9rrqsUCZ-17" value="&lt;b&gt;Advanced&lt;br&gt;&lt;/b&gt;" style="text;html=1;align=center;verticalAlign=middle;resizable=0;points=[];autosize=1;strokeColor=none;fillColor=none;labelPosition=center;verticalLabelPosition=middle;fontColor=#FFFFFF;labelBackgroundColor=none;" parent="1" vertex="1">
          <mxGeometry x="-280" y="-2512" width="80" height="30" as="geometry" />
        </mxCell>
        <mxCell id="CHL94sCa6Dml9rrqsUCZ-18" value="&lt;b&gt;Esoteric&lt;br&gt;&lt;/b&gt;" style="text;html=1;align=center;verticalAlign=middle;resizable=0;points=[];autosize=1;strokeColor=none;fillColor=none;labelPosition=center;verticalLabelPosition=middle;fontColor=#FFFFFF;labelBackgroundColor=none;" parent="1" vertex="1">
          <mxGeometry x="40" y="-2512" width="70" height="30" as="geometry" />
        </mxCell>
        <mxCell id="Sw0A1otwbw1RRHu9e6Gp-9" value="&lt;font style=&quot;font-size: 12px;&quot; color=&quot;#ffffff&quot;&gt;&lt;i style=&quot;font-size: 12px;&quot;&gt;Special requirements in italics&lt;/i&gt;&lt;/font&gt;" style="text;html=1;align=center;verticalAlign=middle;resizable=0;points=[];autosize=1;strokeColor=none;fillColor=none;fontSize=12;labelBackgroundColor=none;" parent="1" vertex="1">
          <mxGeometry x="-10" y="-1525" width="180" height="30" as="geometry" />
        </mxCell>
        <mxCell id="Sw0A1otwbw1RRHu9e6Gp-12" value="&lt;font style=&quot;&quot; color=&quot;#ffffff&quot;&gt;&lt;font style=&quot;font-size: 10px;&quot;&gt;T &lt;/font&gt;&lt;font style=&quot;font-size: 14px;&quot;&gt;●○○○&lt;/font&gt;&lt;br&gt;&lt;font style=&quot;font-size: 12px;&quot;&gt;Magic skill &amp;amp; Spell slot cost&lt;/font&gt;&lt;/font&gt;" style="text;html=1;align=center;verticalAlign=middle;resizable=0;points=[];autosize=1;strokeColor=none;fillColor=none;fontColor=#000000;labelBackgroundColor=none;" parent="1" vertex="1">
          <mxGeometry y="-1203" width="170" height="40" as="geometry" />
        </mxCell>
        <mxCell id="Sw0A1otwbw1RRHu9e6Gp-14" value="&lt;font style=&quot;&quot;&gt;&lt;b style=&quot;font-size: 12px;&quot;&gt;&lt;font color=&quot;#ffffff&quot;&gt;Signature spells in bold&lt;/font&gt;&lt;/b&gt;&lt;br&gt;&lt;/font&gt;" style="text;html=1;align=center;verticalAlign=middle;resizable=0;points=[];autosize=1;strokeColor=none;fillColor=none;fontColor=#000000;labelBackgroundColor=none;" parent="1" vertex="1">
          <mxGeometry y="-996" width="160" height="30" as="geometry" />
        </mxCell>
        <mxCell id="Sw0A1otwbw1RRHu9e6Gp-15" value="&lt;font style=&quot;&quot;&gt;&lt;font style=&quot;font-size: 10px;&quot;&gt;T &lt;/font&gt;&lt;font style=&quot;font-size: 14px;&quot;&gt;●○○○&lt;/font&gt;&lt;br&gt;&lt;font style=&quot;font-size: 12px;&quot;&gt;Magic skill &amp;amp; Spell slot cost&lt;/font&gt;&lt;/font&gt;" style="text;html=1;align=center;verticalAlign=middle;resizable=0;points=[];autosize=1;strokeColor=none;fillColor=none;fontColor=#000000;labelBackgroundColor=none;" parent="1" vertex="1">
          <mxGeometry y="-973" width="170" height="40" as="geometry" />
        </mxCell>
        <mxCell id="eg2xaZfrYDTzJc7Hqczu-8" value="Eyes of the Blind" style="rounded=1;whiteSpace=wrap;html=1;strokeColor=#000000;fillColor=#CCCCCC;fontColor=#000000;fontStyle=1;labelBackgroundColor=none;" parent="1" vertex="1">
          <mxGeometry x="-741" y="-2380" width="120" height="60" as="geometry" />
        </mxCell>
        <mxCell id="eg2xaZfrYDTzJc7Hqczu-9" value="&lt;font style=&quot;font-size: 10px;&quot;&gt;U&amp;nbsp;&lt;/font&gt;&lt;font style=&quot;font-size: 14px;&quot;&gt;●●○○&lt;/font&gt;" style="text;html=1;align=right;verticalAlign=bottom;resizable=0;points=[];autosize=1;fontColor=#000000;spacing=0;spacingRight=4;spacingBottom=-2;labelBackgroundColor=none;" parent="1" vertex="1">
          <mxGeometry x="-691" y="-2340" width="70" height="20" as="geometry" />
        </mxCell>
        <mxCell id="eg2xaZfrYDTzJc7Hqczu-11" value="" style="endArrow=none;html=1;rounded=0;curved=1;exitX=1;exitY=0.5;exitDx=0;exitDy=0;entryX=0;entryY=0.5;entryDx=0;entryDy=0;labelBackgroundColor=none;" parent="1" source="8By_QkY793YM4N230Kt9-1" edge="1">
          <mxGeometry width="50" height="50" relative="1" as="geometry">
            <mxPoint x="-890" y="-2422" as="sourcePoint" />
            <mxPoint x="-581" y="-2432" as="targetPoint" />
          </mxGeometry>
        </mxCell>
        <mxCell id="eg2xaZfrYDTzJc7Hqczu-12" value="" style="endArrow=none;html=1;rounded=0;curved=1;exitX=1;exitY=0.5;exitDx=0;exitDy=0;entryX=0;entryY=0.5;entryDx=0;entryDy=0;edgeStyle=orthogonalEdgeStyle;labelBackgroundColor=none;" parent="1" source="8By_QkY793YM4N230Kt9-1" target="8By_QkY793YM4N230Kt9-2" edge="1">
          <mxGeometry width="50" height="50" relative="1" as="geometry">
            <mxPoint x="-710" y="-2260" as="sourcePoint" />
            <mxPoint x="-660" y="-2310" as="targetPoint" />
          </mxGeometry>
        </mxCell>
        <mxCell id="eg2xaZfrYDTzJc7Hqczu-13" value="" style="endArrow=none;html=1;rounded=0;curved=1;entryX=0.5;entryY=1;entryDx=0;entryDy=0;exitX=0.5;exitY=0;exitDx=0;exitDy=0;edgeStyle=orthogonalEdgeStyle;dashed=1;labelBackgroundColor=none;" parent="1" source="eg2xaZfrYDTzJc7Hqczu-8" edge="1">
          <mxGeometry width="50" height="50" relative="1" as="geometry">
            <mxPoint x="-700" y="-2250" as="sourcePoint" />
            <mxPoint x="-520" y="-2401" as="targetPoint" />
          </mxGeometry>
        </mxCell>
        <mxCell id="eg2xaZfrYDTzJc7Hqczu-14" value="" style="endArrow=none;html=1;rounded=0;curved=1;edgeStyle=orthogonalEdgeStyle;dashed=1;labelBackgroundColor=none;" parent="1" edge="1">
          <mxGeometry width="50" height="50" relative="1" as="geometry">
            <mxPoint x="-780" y="-2350" as="sourcePoint" />
            <mxPoint x="-740" y="-2350" as="targetPoint" />
          </mxGeometry>
        </mxCell>
        <mxCell id="eg2xaZfrYDTzJc7Hqczu-15" value="Rite of Contrition" style="rounded=1;whiteSpace=wrap;html=1;strokeColor=#000000;fillColor=#CCCCCC;fontColor=#000000;fontStyle=1;labelBackgroundColor=none;" parent="1" vertex="1">
          <mxGeometry x="-579" y="-2380" width="120" height="60" as="geometry" />
        </mxCell>
        <mxCell id="eg2xaZfrYDTzJc7Hqczu-16" value="&lt;font style=&quot;font-size: 10px;&quot;&gt;U&amp;nbsp;&lt;/font&gt;&lt;font style=&quot;font-size: 14px;&quot;&gt;●○○○&lt;/font&gt;" style="text;html=1;align=right;verticalAlign=bottom;resizable=0;points=[];autosize=1;fontColor=#000000;spacing=0;spacingRight=4;spacingBottom=-2;labelBackgroundColor=none;" parent="1" vertex="1">
          <mxGeometry x="-529" y="-2340" width="70" height="20" as="geometry" />
        </mxCell>
        <mxCell id="eg2xaZfrYDTzJc7Hqczu-17" value="Rite of Grace" style="rounded=1;whiteSpace=wrap;html=1;strokeColor=#000000;fillColor=#CCCCCC;fontColor=#000000;fontStyle=1;labelBackgroundColor=none;" parent="1" vertex="1">
          <mxGeometry x="-580" y="-2300" width="120" height="60" as="geometry" />
        </mxCell>
        <mxCell id="eg2xaZfrYDTzJc7Hqczu-18" value="&lt;font style=&quot;font-size: 10px;&quot;&gt;U &lt;/font&gt;&lt;font style=&quot;font-size: 14px;&quot;&gt;●○○○&lt;/font&gt;" style="text;html=1;align=right;verticalAlign=bottom;resizable=0;points=[];autosize=1;fontColor=#000000;spacing=0;spacingRight=4;spacingBottom=-2;labelBackgroundColor=none;" parent="1" vertex="1">
          <mxGeometry x="-529" y="-2260" width="70" height="20" as="geometry" />
        </mxCell>
        <mxCell id="eg2xaZfrYDTzJc7Hqczu-19" value="" style="endArrow=none;html=1;rounded=0;curved=1;edgeStyle=orthogonalEdgeStyle;exitX=0;exitY=0.5;exitDx=0;exitDy=0;entryX=1;entryY=0.5;entryDx=0;entryDy=0;labelBackgroundColor=none;" parent="1" source="eg2xaZfrYDTzJc7Hqczu-17" target="eg2xaZfrYDTzJc7Hqczu-8" edge="1">
          <mxGeometry width="50" height="50" relative="1" as="geometry">
            <mxPoint x="-620" y="-2350" as="sourcePoint" />
            <mxPoint x="-620" y="-2350" as="targetPoint" />
          </mxGeometry>
        </mxCell>
        <mxCell id="eg2xaZfrYDTzJc7Hqczu-20" value="" style="endArrow=none;html=1;rounded=0;strokeColor=default;align=center;verticalAlign=middle;fontFamily=Helvetica;fontSize=11;fontColor=default;labelBackgroundColor=none;edgeStyle=orthogonalEdgeStyle;curved=1;exitX=1;exitY=0.5;exitDx=0;exitDy=0;entryX=0;entryY=0.5;entryDx=0;entryDy=0;" parent="1" source="eg2xaZfrYDTzJc7Hqczu-8" target="eg2xaZfrYDTzJc7Hqczu-15" edge="1">
          <mxGeometry width="50" height="50" relative="1" as="geometry">
            <mxPoint x="-600" y="-2270" as="sourcePoint" />
            <mxPoint x="-550" y="-2320" as="targetPoint" />
          </mxGeometry>
        </mxCell>
        <mxCell id="eg2xaZfrYDTzJc7Hqczu-28" value="&lt;font style=&quot;font-size: 10px;&quot; color=&quot;#000000&quot;&gt;&lt;i style=&quot;font-size: 10px;&quot;&gt;Requires:&lt;/i&gt;&lt;/font&gt;&lt;div&gt;&lt;font style=&quot;font-size: 10px;&quot; color=&quot;#000000&quot;&gt;&lt;i style=&quot;font-size: 10px;&quot;&gt;VOD&amp;nbsp;&lt;/i&gt;&lt;/font&gt;&lt;i style=&quot;&quot;&gt;or PV&lt;/i&gt;&lt;/div&gt;" style="text;html=1;align=left;verticalAlign=middle;resizable=0;points=[];autosize=1;strokeColor=none;fillColor=none;fontSize=10;labelBackgroundColor=none;" parent="1" vertex="1">
          <mxGeometry x="-740" y="-2352" width="70" height="40" as="geometry" />
        </mxCell>
        <mxCell id="eg2xaZfrYDTzJc7Hqczu-31" value="&lt;font style=&quot;font-size: 10px;&quot; color=&quot;#000000&quot;&gt;&lt;i style=&quot;font-size: 10px;&quot;&gt;Circle 40&lt;/i&gt;&lt;/font&gt;" style="text;html=1;align=right;verticalAlign=middle;resizable=0;points=[];autosize=1;strokeColor=none;fillColor=none;fontSize=10;labelBackgroundColor=none;" parent="1" vertex="1">
          <mxGeometry x="-685" y="-2387" width="60" height="30" as="geometry" />
        </mxCell>
        <mxCell id="eg2xaZfrYDTzJc7Hqczu-42" value="&lt;span style=&quot;font-weight: normal;&quot;&gt;Liturgy&lt;/span&gt;" style="rounded=1;whiteSpace=wrap;html=1;strokeColor=default;fillColor=#CCCCCC;fontColor=#000000;fontStyle=1;fontFamily=Helvetica;fontSize=11;labelBackgroundColor=none;" parent="1" vertex="1">
          <mxGeometry x="-420" y="-2340" width="120" height="60" as="geometry" />
        </mxCell>
        <mxCell id="eg2xaZfrYDTzJc7Hqczu-46" value="&lt;font style=&quot;font-size: 10px;&quot;&gt;M&amp;nbsp;&lt;/font&gt;&lt;font style=&quot;font-size: 14px;&quot;&gt;●○○○&lt;/font&gt;" style="text;html=1;align=right;verticalAlign=bottom;resizable=0;points=[];autosize=1;fontColor=#000000;spacing=0;spacingRight=4;spacingBottom=-2;labelBackgroundColor=none;" parent="1" vertex="1">
          <mxGeometry x="-370" y="-2300" width="70" height="20" as="geometry" />
        </mxCell>
        <mxCell id="eg2xaZfrYDTzJc7Hqczu-47" value="" style="endArrow=none;html=1;rounded=0;strokeColor=default;align=center;verticalAlign=middle;fontFamily=Helvetica;fontSize=11;fontColor=default;labelBackgroundColor=none;edgeStyle=orthogonalEdgeStyle;curved=1;entryX=0;entryY=0.5;entryDx=0;entryDy=0;exitX=1;exitY=0.5;exitDx=0;exitDy=0;" parent="1" source="eg2xaZfrYDTzJc7Hqczu-17" target="eg2xaZfrYDTzJc7Hqczu-42" edge="1">
          <mxGeometry width="50" height="50" relative="1" as="geometry">
            <mxPoint x="-720" y="-2180" as="sourcePoint" />
            <mxPoint x="-670" y="-2230" as="targetPoint" />
          </mxGeometry>
        </mxCell>
        <mxCell id="eg2xaZfrYDTzJc7Hqczu-48" value="" style="endArrow=none;html=1;rounded=0;strokeColor=default;align=center;verticalAlign=middle;fontFamily=Helvetica;fontSize=11;fontColor=default;labelBackgroundColor=none;edgeStyle=orthogonalEdgeStyle;curved=1;entryX=0;entryY=0.5;entryDx=0;entryDy=0;exitX=1;exitY=0.5;exitDx=0;exitDy=0;" parent="1" source="eg2xaZfrYDTzJc7Hqczu-15" target="eg2xaZfrYDTzJc7Hqczu-42" edge="1">
          <mxGeometry width="50" height="50" relative="1" as="geometry">
            <mxPoint x="-710" y="-2170" as="sourcePoint" />
            <mxPoint x="-660" y="-2220" as="targetPoint" />
          </mxGeometry>
        </mxCell>
        <mxCell id="00F6EFA50dviSRzl4qSe-29" value="" style="endArrow=none;html=1;rounded=0;exitX=0.998;exitY=0.437;exitDx=0;exitDy=0;exitPerimeter=0;entryX=0;entryY=0.5;entryDx=0;entryDy=0;edgeStyle=orthogonalEdgeStyle;curved=1;" edge="1" parent="1" source="00F6EFA50dviSRzl4qSe-2" target="00F6EFA50dviSRzl4qSe-10">
          <mxGeometry width="50" height="50" relative="1" as="geometry">
            <mxPoint x="-450" y="-2070" as="sourcePoint" />
            <mxPoint x="-400" y="-2120" as="targetPoint" />
          </mxGeometry>
        </mxCell>
        <mxCell id="00F6EFA50dviSRzl4qSe-30" value="" style="endArrow=none;html=1;rounded=0;strokeColor=default;align=center;verticalAlign=middle;fontFamily=Helvetica;fontSize=11;fontColor=default;labelBackgroundColor=default;edgeStyle=orthogonalEdgeStyle;curved=1;exitX=1.002;exitY=0.429;exitDx=0;exitDy=0;exitPerimeter=0;entryX=0;entryY=0.5;entryDx=0;entryDy=0;" edge="1" parent="1" source="00F6EFA50dviSRzl4qSe-2" target="00F6EFA50dviSRzl4qSe-6">
          <mxGeometry width="50" height="50" relative="1" as="geometry">
            <mxPoint x="-450" y="-2070" as="sourcePoint" />
            <mxPoint x="-400" y="-2120" as="targetPoint" />
          </mxGeometry>
        </mxCell>
        <mxCell id="00F6EFA50dviSRzl4qSe-31" value="" style="endArrow=none;html=1;rounded=0;strokeColor=default;align=center;verticalAlign=middle;fontFamily=Helvetica;fontSize=11;fontColor=default;labelBackgroundColor=default;edgeStyle=orthogonalEdgeStyle;curved=1;exitX=1;exitY=0.5;exitDx=0;exitDy=0;entryX=0;entryY=0.5;entryDx=0;entryDy=0;" edge="1" parent="1" source="00F6EFA50dviSRzl4qSe-6" target="00F6EFA50dviSRzl4qSe-17">
          <mxGeometry width="50" height="50" relative="1" as="geometry">
            <mxPoint x="-450" y="-2070" as="sourcePoint" />
            <mxPoint x="-400" y="-2120" as="targetPoint" />
          </mxGeometry>
        </mxCell>
        <mxCell id="00F6EFA50dviSRzl4qSe-32" value="" style="endArrow=none;html=1;rounded=0;strokeColor=default;align=center;verticalAlign=middle;fontFamily=Helvetica;fontSize=11;fontColor=default;labelBackgroundColor=default;edgeStyle=orthogonalEdgeStyle;curved=1;exitX=0.5;exitY=1;exitDx=0;exitDy=0;entryX=0.5;entryY=0;entryDx=0;entryDy=0;" edge="1" parent="1" source="00F6EFA50dviSRzl4qSe-17" target="00F6EFA50dviSRzl4qSe-14">
          <mxGeometry width="50" height="50" relative="1" as="geometry">
            <mxPoint x="-450" y="-1981" as="sourcePoint" />
            <mxPoint x="-410" y="-1981" as="targetPoint" />
          </mxGeometry>
        </mxCell>
        <mxCell id="00F6EFA50dviSRzl4qSe-33" value="" style="endArrow=none;html=1;rounded=0;strokeColor=default;align=center;verticalAlign=middle;fontFamily=Helvetica;fontSize=11;fontColor=default;labelBackgroundColor=default;edgeStyle=orthogonalEdgeStyle;curved=1;entryX=1.01;entryY=0.429;entryDx=0;entryDy=0;entryPerimeter=0;exitX=0;exitY=0.5;exitDx=0;exitDy=0;" edge="1" parent="1" source="00F6EFA50dviSRzl4qSe-23" target="00F6EFA50dviSRzl4qSe-10">
          <mxGeometry width="50" height="50" relative="1" as="geometry">
            <mxPoint x="-450" y="-2070" as="sourcePoint" />
            <mxPoint x="-400" y="-2120" as="targetPoint" />
          </mxGeometry>
        </mxCell>
        <mxCell id="00F6EFA50dviSRzl4qSe-34" value="" style="endArrow=none;html=1;rounded=0;strokeColor=default;align=center;verticalAlign=middle;fontFamily=Helvetica;fontSize=11;fontColor=default;labelBackgroundColor=default;edgeStyle=orthogonalEdgeStyle;curved=1;entryX=1.013;entryY=0.445;entryDx=0;entryDy=0;entryPerimeter=0;exitX=0;exitY=0.5;exitDx=0;exitDy=0;" edge="1" parent="1" source="00F6EFA50dviSRzl4qSe-20" target="00F6EFA50dviSRzl4qSe-10">
          <mxGeometry width="50" height="50" relative="1" as="geometry">
            <mxPoint x="-410" y="-2163" as="sourcePoint" />
            <mxPoint x="-449" y="-2127" as="targetPoint" />
          </mxGeometry>
        </mxCell>
        <mxCell id="00F6EFA50dviSRzl4qSe-35" value="" style="endArrow=none;html=1;rounded=0;strokeColor=default;align=center;verticalAlign=middle;fontFamily=Helvetica;fontSize=11;fontColor=default;labelBackgroundColor=default;edgeStyle=orthogonalEdgeStyle;curved=1;entryX=1.021;entryY=0.437;entryDx=0;entryDy=0;entryPerimeter=0;exitX=-0.002;exitY=0.596;exitDx=0;exitDy=0;exitPerimeter=0;" edge="1" parent="1" source="00F6EFA50dviSRzl4qSe-26" target="00F6EFA50dviSRzl4qSe-10">
          <mxGeometry width="50" height="50" relative="1" as="geometry">
            <mxPoint x="-410" y="-2063" as="sourcePoint" />
            <mxPoint x="-448" y="-2126" as="targetPoint" />
          </mxGeometry>
        </mxCell>
        <mxCell id="00F6EFA50dviSRzl4qSe-36" value="" style="endArrow=none;html=1;rounded=0;strokeColor=default;align=center;verticalAlign=middle;fontFamily=Helvetica;fontSize=11;fontColor=default;labelBackgroundColor=default;edgeStyle=orthogonalEdgeStyle;curved=1;entryX=1.009;entryY=0.444;entryDx=0;entryDy=0;entryPerimeter=0;exitX=0.574;exitY=0;exitDx=0;exitDy=0;exitPerimeter=0;" edge="1" parent="1" source="00F6EFA50dviSRzl4qSe-26" target="8By_QkY793YM4N230Kt9-3">
          <mxGeometry width="50" height="50" relative="1" as="geometry">
            <mxPoint x="-180" y="-2180" as="sourcePoint" />
            <mxPoint x="-438" y="-2116" as="targetPoint" />
            <Array as="points">
              <mxPoint x="-190" y="-2172" />
              <mxPoint x="-190" y="-2432" />
              <mxPoint x="-458" y="-2432" />
            </Array>
          </mxGeometry>
        </mxCell>
        <mxCell id="00F6EFA50dviSRzl4qSe-23" value="Ghoulflesh" style="rounded=1;whiteSpace=wrap;html=1;strokeColor=#000000;fillColor=#DEAD26;fontColor=#000000;fontStyle=1;fontFamily=Helvetica;fontSize=11;labelBackgroundColor=none;container=0;" vertex="1" parent="1">
          <mxGeometry x="-420" y="-2203" width="120" height="60" as="geometry" />
        </mxCell>
        <mxCell id="00F6EFA50dviSRzl4qSe-24" value="&lt;font style=&quot;font-size: 10px;&quot;&gt;W&amp;nbsp;&lt;/font&gt;&lt;span style=&quot;font-size: 14px;&quot;&gt;●&lt;/span&gt;&lt;span style=&quot;font-size: 14px;&quot;&gt;●&lt;/span&gt;&lt;span style=&quot;font-size: 14px;&quot;&gt;○&lt;/span&gt;&lt;span style=&quot;font-size: 14px;&quot;&gt;○&lt;/span&gt;" style="text;html=1;align=right;verticalAlign=bottom;resizable=0;points=[];autosize=1;fontColor=default;spacing=0;spacingRight=4;spacingBottom=-2;fontFamily=Helvetica;fontSize=11;labelBackgroundColor=none;container=0;" vertex="1" parent="1">
          <mxGeometry x="-370" y="-2163" width="70" height="20" as="geometry" />
        </mxCell>
        <mxCell id="00F6EFA50dviSRzl4qSe-2" value="Quicken the Earth" style="rounded=1;whiteSpace=wrap;html=1;strokeColor=#000000;fillColor=#DEAD26;fontColor=#000000;fontStyle=1;fontFamily=Helvetica;fontSize=11;labelBackgroundColor=none;container=0;" vertex="1" parent="1">
          <mxGeometry x="-741" y="-2103" width="120" height="60" as="geometry" />
        </mxCell>
        <mxCell id="00F6EFA50dviSRzl4qSe-3" value="&lt;font style=&quot;font-size: 10px;&quot;&gt;U&amp;nbsp;&lt;/font&gt;&lt;span style=&quot;font-size: 14px;&quot;&gt;●&lt;/span&gt;&lt;span style=&quot;font-size: 14px;&quot;&gt;●&lt;/span&gt;&lt;span style=&quot;font-size: 14px;&quot;&gt;○&lt;/span&gt;&lt;span style=&quot;font-size: 14px;&quot;&gt;○&lt;/span&gt;" style="text;html=1;align=right;verticalAlign=bottom;resizable=0;points=[];autosize=1;fontColor=default;spacing=0;spacingRight=4;spacingBottom=-2;fontFamily=Helvetica;fontSize=11;labelBackgroundColor=none;container=0;" vertex="1" parent="1">
          <mxGeometry x="-691" y="-2063" width="70" height="20" as="geometry" />
        </mxCell>
        <mxCell id="00F6EFA50dviSRzl4qSe-4" value="&lt;font color=&quot;#000000&quot; style=&quot;font-size: 10px;&quot;&gt;&lt;i style=&quot;font-size: 10px;&quot;&gt;Circle 5&lt;/i&gt;&lt;/font&gt;" style="text;html=1;align=right;verticalAlign=middle;resizable=0;points=[];autosize=1;strokeColor=none;fillColor=none;fontSize=11;fontFamily=Helvetica;fontColor=default;labelBackgroundColor=none;container=0;" vertex="1" parent="1">
          <mxGeometry x="-685" y="-2110" width="60" height="30" as="geometry" />
        </mxCell>
        <mxCell id="00F6EFA50dviSRzl4qSe-6" value="Necrotic Reconstruction" style="rounded=1;whiteSpace=wrap;html=1;strokeColor=#000000;fillColor=#DEAD26;fontColor=#000000;fontStyle=1;fontFamily=Helvetica;fontSize=11;labelBackgroundColor=none;container=0;" vertex="1" parent="1">
          <mxGeometry x="-580" y="-2021" width="120" height="60" as="geometry" />
        </mxCell>
        <mxCell id="00F6EFA50dviSRzl4qSe-7" value="&lt;font style=&quot;font-size: 10px;&quot;&gt;U&amp;nbsp;&lt;/font&gt;&lt;span style=&quot;font-size: 14px;&quot;&gt;●&lt;/span&gt;&lt;span style=&quot;font-size: 14px;&quot;&gt;●&lt;/span&gt;&lt;span style=&quot;font-size: 14px;&quot;&gt;○&lt;/span&gt;&lt;span style=&quot;font-size: 14px;&quot;&gt;○&lt;/span&gt;" style="text;html=1;align=right;verticalAlign=bottom;resizable=0;points=[];autosize=1;fontColor=default;spacing=0;spacingRight=4;spacingBottom=-2;fontFamily=Helvetica;fontSize=11;labelBackgroundColor=none;container=0;" vertex="1" parent="1">
          <mxGeometry x="-530" y="-1981" width="70" height="20" as="geometry" />
        </mxCell>
        <mxCell id="00F6EFA50dviSRzl4qSe-10" value="Call from Beyond" style="rounded=1;whiteSpace=wrap;html=1;strokeColor=#000000;fillColor=#DEAD26;fontColor=#000000;fontStyle=1;fontFamily=Helvetica;fontSize=11;labelBackgroundColor=none;container=0;" vertex="1" parent="1">
          <mxGeometry x="-580" y="-2163" width="120" height="60" as="geometry" />
        </mxCell>
        <mxCell id="00F6EFA50dviSRzl4qSe-11" value="&lt;font style=&quot;font-size: 10px;&quot;&gt;U&amp;nbsp;&lt;/font&gt;&lt;span style=&quot;font-size: 14px;&quot;&gt;●&lt;/span&gt;&lt;span style=&quot;font-size: 14px;&quot;&gt;●&lt;/span&gt;&lt;span style=&quot;font-size: 14px;&quot;&gt;●&lt;/span&gt;&lt;span style=&quot;font-size: 14px;&quot;&gt;○&lt;/span&gt;" style="text;html=1;align=right;verticalAlign=bottom;resizable=0;points=[];autosize=1;fontColor=default;spacing=0;spacingRight=4;spacingBottom=-2;fontFamily=Helvetica;fontSize=11;labelBackgroundColor=none;container=0;" vertex="1" parent="1">
          <mxGeometry x="-530" y="-2123" width="70" height="20" as="geometry" />
        </mxCell>
        <mxCell id="00F6EFA50dviSRzl4qSe-12" value="&lt;font color=&quot;#000000&quot; style=&quot;font-size: 10px;&quot;&gt;&lt;i style=&quot;font-size: 10px;&quot;&gt;Circle 20&lt;/i&gt;&lt;/font&gt;" style="text;html=1;align=right;verticalAlign=middle;resizable=0;points=[];autosize=1;strokeColor=none;fillColor=none;fontSize=11;fontFamily=Helvetica;fontColor=default;labelBackgroundColor=none;container=0;" vertex="1" parent="1">
          <mxGeometry x="-524" y="-2170" width="60" height="30" as="geometry" />
        </mxCell>
        <mxCell id="00F6EFA50dviSRzl4qSe-14" value="Covetous Rebirth" style="rounded=1;whiteSpace=wrap;html=1;strokeColor=#000000;fillColor=#DEAD26;fontColor=#000000;fontStyle=1;fontFamily=Helvetica;fontSize=11;labelBackgroundColor=none;container=0;" vertex="1" parent="1">
          <mxGeometry x="-420" y="-1939" width="120" height="60" as="geometry" />
        </mxCell>
        <mxCell id="00F6EFA50dviSRzl4qSe-15" value="&lt;font style=&quot;font-size: 10px;&quot;&gt;M&amp;nbsp;&lt;/font&gt;&lt;font style=&quot;font-size: 14px;&quot;&gt;●&lt;/font&gt;&lt;span style=&quot;font-size: 14px;&quot;&gt;○&lt;/span&gt;&lt;span style=&quot;font-size: 14px;&quot;&gt;○&lt;/span&gt;&lt;span style=&quot;font-size: 14px;&quot;&gt;○&lt;/span&gt;" style="text;html=1;align=right;verticalAlign=bottom;resizable=0;points=[];autosize=1;fontColor=default;spacing=0;spacingRight=4;spacingBottom=-2;fontFamily=Helvetica;fontSize=11;labelBackgroundColor=none;container=0;" vertex="1" parent="1">
          <mxGeometry x="-370" y="-1899" width="70" height="20" as="geometry" />
        </mxCell>
        <mxCell id="00F6EFA50dviSRzl4qSe-17" value="Spiteful Rebirth" style="rounded=1;whiteSpace=wrap;html=1;strokeColor=#000000;fillColor=#DEAD26;fontColor=#000000;fontStyle=1;fontFamily=Helvetica;fontSize=11;labelBackgroundColor=none;container=0;" vertex="1" parent="1">
          <mxGeometry x="-420" y="-2021" width="120" height="60" as="geometry" />
        </mxCell>
        <mxCell id="00F6EFA50dviSRzl4qSe-18" value="&lt;font style=&quot;font-size: 10px;&quot;&gt;M&amp;nbsp;&lt;/font&gt;&lt;span style=&quot;font-size: 14px;&quot;&gt;●&lt;/span&gt;&lt;span style=&quot;font-size: 14px;&quot;&gt;●&lt;/span&gt;&lt;span style=&quot;font-size: 14px;&quot;&gt;○&lt;/span&gt;&lt;span style=&quot;font-size: 14px;&quot;&gt;○&lt;/span&gt;" style="text;html=1;align=right;verticalAlign=bottom;resizable=0;points=[];autosize=1;fontColor=default;spacing=0;spacingRight=4;spacingBottom=-2;fontFamily=Helvetica;fontSize=11;labelBackgroundColor=none;container=0;" vertex="1" parent="1">
          <mxGeometry x="-370" y="-1981" width="70" height="20" as="geometry" />
        </mxCell>
        <mxCell id="00F6EFA50dviSRzl4qSe-20" value="Reverse Putrefaction" style="rounded=1;whiteSpace=wrap;html=1;strokeColor=#000000;fillColor=#DEAD26;fontColor=#000000;fontStyle=1;fontFamily=Helvetica;fontSize=11;labelBackgroundColor=none;fillOpacity=100;pointerEvents=1;container=0;" vertex="1" parent="1">
          <mxGeometry x="-420" y="-2103" width="120" height="60" as="geometry" />
        </mxCell>
        <mxCell id="00F6EFA50dviSRzl4qSe-21" value="&lt;font style=&quot;font-size: 10px;&quot;&gt;A&amp;nbsp;&lt;/font&gt;&lt;span style=&quot;font-size: 14px;&quot;&gt;●&lt;/span&gt;&lt;span style=&quot;font-size: 14px;&quot;&gt;●&lt;/span&gt;&lt;span style=&quot;font-size: 14px;&quot;&gt;●&lt;/span&gt;&lt;span style=&quot;font-size: 14px;&quot;&gt;○&lt;/span&gt;" style="text;html=1;align=right;verticalAlign=bottom;resizable=0;points=[];autosize=1;fontColor=default;spacing=0;spacingRight=4;spacingBottom=-2;fontFamily=Helvetica;fontSize=11;labelBackgroundColor=none;container=0;" vertex="1" parent="1">
          <mxGeometry x="-360" y="-2063" width="60" height="20" as="geometry" />
        </mxCell>
        <mxCell id="00F6EFA50dviSRzl4qSe-26" value="Call from Within" style="rounded=1;whiteSpace=wrap;html=1;strokeColor=#000000;fillColor=#DEAD26;fontColor=#000000;fontStyle=1;fontFamily=Helvetica;fontSize=11;labelBackgroundColor=none;container=0;" vertex="1" parent="1">
          <mxGeometry x="-259" y="-2173" width="120" height="60" as="geometry" />
        </mxCell>
        <mxCell id="00F6EFA50dviSRzl4qSe-27" value="&lt;font style=&quot;font-size: 10px;&quot;&gt;U&amp;nbsp;&lt;/font&gt;&lt;span style=&quot;font-size: 14px;&quot;&gt;●&lt;/span&gt;&lt;span style=&quot;font-size: 14px;&quot;&gt;●&lt;/span&gt;&lt;span style=&quot;font-size: 14px;&quot;&gt;●&lt;/span&gt;&lt;span style=&quot;font-size: 14px;&quot;&gt;○&lt;/span&gt;" style="text;html=1;align=right;verticalAlign=bottom;resizable=0;points=[];autosize=1;fontColor=default;spacing=0;spacingRight=4;spacingBottom=-2;fontFamily=Helvetica;fontSize=11;labelBackgroundColor=none;container=0;" vertex="1" parent="1">
          <mxGeometry x="-209" y="-2133" width="70" height="20" as="geometry" />
        </mxCell>
        <mxCell id="00F6EFA50dviSRzl4qSe-139" value="" style="group;fontFamily=Helvetica;fontSize=11;labelBackgroundColor=none;" vertex="1" connectable="0" parent="1">
          <mxGeometry x="-260" y="-1850" width="120" height="75" as="geometry" />
        </mxCell>
        <mxCell id="00F6EFA50dviSRzl4qSe-140" value="Vivisection" style="rounded=1;whiteSpace=wrap;html=1;strokeColor=#000000;fillColor=#BFFFFF;fontColor=#000000;fontStyle=1;fontFamily=Helvetica;fontSize=11;labelBackgroundColor=none;" vertex="1" parent="00F6EFA50dviSRzl4qSe-139">
          <mxGeometry y="7" width="120" height="60" as="geometry" />
        </mxCell>
        <mxCell id="00F6EFA50dviSRzl4qSe-141" value="&lt;font style=&quot;font-size: 10px;&quot;&gt;T&amp;nbsp;&lt;/font&gt;&lt;span style=&quot;font-size: 14px;&quot;&gt;●&lt;/span&gt;&lt;span style=&quot;font-size: 14px;&quot;&gt;●&lt;/span&gt;&lt;span style=&quot;font-size: 14px;&quot;&gt;○&lt;/span&gt;&lt;span style=&quot;font-size: 14px;&quot;&gt;○&lt;/span&gt;" style="text;html=1;align=right;verticalAlign=bottom;resizable=0;points=[];autosize=1;fontColor=default;spacing=0;spacingRight=4;spacingBottom=-2;fontFamily=Helvetica;fontSize=11;labelBackgroundColor=none;" vertex="1" parent="00F6EFA50dviSRzl4qSe-139">
          <mxGeometry x="60" y="47" width="60" height="20" as="geometry" />
        </mxCell>
        <mxCell id="00F6EFA50dviSRzl4qSe-142" value="&lt;font style=&quot;font-size: 10px;&quot; color=&quot;#000000&quot;&gt;&lt;i style=&quot;font-size: 10px;&quot;&gt;Circle 40&lt;/i&gt;&lt;/font&gt;" style="text;html=1;align=right;verticalAlign=middle;resizable=0;points=[];autosize=1;strokeColor=none;fillColor=none;fontSize=11;fontFamily=Helvetica;fontColor=default;labelBackgroundColor=none;" vertex="1" parent="00F6EFA50dviSRzl4qSe-139">
          <mxGeometry x="56" width="60" height="30" as="geometry" />
        </mxCell>
        <mxCell id="00F6EFA50dviSRzl4qSe-143" value="" style="group;fontFamily=Helvetica;fontSize=11;labelBackgroundColor=none;" vertex="1" connectable="0" parent="1">
          <mxGeometry x="-260" y="-1770" width="120" height="75" as="geometry" />
        </mxCell>
        <mxCell id="00F6EFA50dviSRzl4qSe-144" value="Universal Solvent" style="rounded=1;whiteSpace=wrap;html=1;strokeColor=#000000;fillColor=#BFFFFF;fontColor=#000000;fontStyle=1;fontFamily=Helvetica;fontSize=11;labelBackgroundColor=none;" vertex="1" parent="00F6EFA50dviSRzl4qSe-143">
          <mxGeometry y="7" width="120" height="60" as="geometry" />
        </mxCell>
        <mxCell id="00F6EFA50dviSRzl4qSe-145" value="&lt;font style=&quot;font-size: 10px;&quot;&gt;T&amp;nbsp;&lt;/font&gt;&lt;span style=&quot;font-size: 14px;&quot;&gt;●&lt;/span&gt;&lt;span style=&quot;font-size: 14px;&quot;&gt;●&lt;/span&gt;&lt;span style=&quot;font-size: 14px;&quot;&gt;○&lt;/span&gt;&lt;span style=&quot;font-size: 14px;&quot;&gt;○&lt;/span&gt;" style="text;html=1;align=right;verticalAlign=bottom;resizable=0;points=[];autosize=1;fontColor=default;spacing=0;spacingRight=4;spacingBottom=-2;fontFamily=Helvetica;fontSize=11;labelBackgroundColor=none;" vertex="1" parent="00F6EFA50dviSRzl4qSe-143">
          <mxGeometry x="60" y="47" width="60" height="20" as="geometry" />
        </mxCell>
        <mxCell id="00F6EFA50dviSRzl4qSe-146" value="&lt;font style=&quot;font-size: 10px;&quot; color=&quot;#000000&quot;&gt;&lt;i style=&quot;font-size: 10px;&quot;&gt;Circle 80&lt;/i&gt;&lt;/font&gt;" style="text;html=1;align=right;verticalAlign=middle;resizable=0;points=[];autosize=1;strokeColor=none;fillColor=none;fontSize=11;fontFamily=Helvetica;fontColor=default;labelBackgroundColor=none;" vertex="1" parent="00F6EFA50dviSRzl4qSe-143">
          <mxGeometry x="56" width="60" height="30" as="geometry" />
        </mxCell>
        <mxCell id="00F6EFA50dviSRzl4qSe-147" value="" style="group;fontFamily=Helvetica;fontSize=11;labelBackgroundColor=none;" vertex="1" connectable="0" parent="1">
          <mxGeometry x="-420" y="-1690" width="120" height="75" as="geometry" />
        </mxCell>
        <mxCell id="00F6EFA50dviSRzl4qSe-148" value="Philospher&#39;s Preservation" style="rounded=1;whiteSpace=wrap;html=1;strokeColor=#000000;fillColor=#BFFFFF;fontColor=#000000;fontStyle=1;fontFamily=Helvetica;fontSize=11;labelBackgroundColor=none;" vertex="1" parent="00F6EFA50dviSRzl4qSe-147">
          <mxGeometry y="7" width="120" height="60" as="geometry" />
        </mxCell>
        <mxCell id="00F6EFA50dviSRzl4qSe-149" value="&lt;font style=&quot;font-size: 10px;&quot;&gt;A&amp;nbsp;&lt;/font&gt;&lt;span style=&quot;font-size: 14px;&quot;&gt;●&lt;/span&gt;&lt;span style=&quot;font-size: 14px;&quot;&gt;●&lt;/span&gt;&lt;span style=&quot;font-size: 14px;&quot;&gt;●&lt;/span&gt;&lt;span style=&quot;font-size: 14px;&quot;&gt;●&lt;/span&gt;" style="text;html=1;align=right;verticalAlign=bottom;resizable=0;points=[];autosize=1;fontColor=default;spacing=0;spacingRight=4;spacingBottom=-2;fontFamily=Helvetica;fontSize=11;labelBackgroundColor=none;" vertex="1" parent="00F6EFA50dviSRzl4qSe-147">
          <mxGeometry x="60" y="47" width="60" height="20" as="geometry" />
        </mxCell>
        <mxCell id="00F6EFA50dviSRzl4qSe-150" value="" style="group;fontFamily=Helvetica;fontSize=11;labelBackgroundColor=none;" vertex="1" connectable="0" parent="1">
          <mxGeometry x="-120" y="-1850" width="120" height="75" as="geometry" />
        </mxCell>
        <mxCell id="00F6EFA50dviSRzl4qSe-151" value="Alkahest Edge" style="rounded=1;whiteSpace=wrap;html=1;strokeColor=#000000;fillColor=#BFFFFF;fontColor=#000000;fontStyle=1;fontFamily=Helvetica;fontSize=11;labelBackgroundColor=none;" vertex="1" parent="00F6EFA50dviSRzl4qSe-150">
          <mxGeometry y="7" width="120" height="60" as="geometry" />
        </mxCell>
        <mxCell id="00F6EFA50dviSRzl4qSe-152" value="&lt;font style=&quot;font-size: 10px;&quot;&gt;M&amp;nbsp;&lt;/font&gt;&lt;font style=&quot;font-size: 14px;&quot;&gt;●&lt;/font&gt;&lt;span style=&quot;font-size: 14px;&quot;&gt;○&lt;/span&gt;&lt;span style=&quot;font-size: 14px;&quot;&gt;○&lt;/span&gt;&lt;span style=&quot;font-size: 14px;&quot;&gt;○&lt;/span&gt;" style="text;html=1;align=right;verticalAlign=bottom;resizable=0;points=[];autosize=1;fontColor=default;spacing=0;spacingRight=4;spacingBottom=-2;fontFamily=Helvetica;fontSize=11;labelBackgroundColor=none;" vertex="1" parent="00F6EFA50dviSRzl4qSe-150">
          <mxGeometry x="50" y="47" width="70" height="20" as="geometry" />
        </mxCell>
        <mxCell id="00F6EFA50dviSRzl4qSe-153" value="" style="group;fontFamily=Helvetica;fontSize=11;labelBackgroundColor=none;" vertex="1" connectable="0" parent="1">
          <mxGeometry x="-1060" y="-1770" width="120" height="75" as="geometry" />
        </mxCell>
        <mxCell id="00F6EFA50dviSRzl4qSe-154" value="&lt;span style=&quot;font-weight: normal;&quot;&gt;Acid Splash&lt;/span&gt;" style="rounded=1;whiteSpace=wrap;html=1;strokeColor=#000000;fillColor=#BFFFFF;fontColor=#000000;fontStyle=1;fontFamily=Helvetica;fontSize=11;labelBackgroundColor=none;" vertex="1" parent="00F6EFA50dviSRzl4qSe-153">
          <mxGeometry y="7" width="120" height="60" as="geometry" />
        </mxCell>
        <mxCell id="00F6EFA50dviSRzl4qSe-155" value="&lt;font style=&quot;font-size: 10px;&quot;&gt;T&amp;nbsp;&lt;/font&gt;&lt;font style=&quot;font-size: 14px;&quot;&gt;●&lt;/font&gt;&lt;span style=&quot;font-size: 14px;&quot;&gt;○&lt;/span&gt;&lt;span style=&quot;font-size: 14px;&quot;&gt;○&lt;/span&gt;&lt;span style=&quot;font-size: 14px;&quot;&gt;○&lt;/span&gt;" style="text;html=1;align=right;verticalAlign=bottom;resizable=0;points=[];autosize=1;fontColor=default;spacing=0;spacingRight=4;spacingBottom=-2;fontFamily=Helvetica;fontSize=11;labelBackgroundColor=none;" vertex="1" parent="00F6EFA50dviSRzl4qSe-153">
          <mxGeometry x="60" y="47" width="60" height="20" as="geometry" />
        </mxCell>
        <mxCell id="00F6EFA50dviSRzl4qSe-160" value="" style="group;fontFamily=Helvetica;fontSize=11;labelBackgroundColor=none;" vertex="1" connectable="0" parent="1">
          <mxGeometry x="-579" y="-1690" width="120" height="75" as="geometry" />
        </mxCell>
        <mxCell id="00F6EFA50dviSRzl4qSe-161" value="&lt;span style=&quot;font-weight: normal;&quot;&gt;Researcher&#39;s Insight&lt;/span&gt;" style="rounded=1;whiteSpace=wrap;html=1;strokeColor=#000000;fillColor=#BFFFFF;fontColor=#000000;fontStyle=1;fontFamily=Helvetica;fontSize=11;labelBackgroundColor=none;" vertex="1" parent="00F6EFA50dviSRzl4qSe-160">
          <mxGeometry y="7" width="120" height="60" as="geometry" />
        </mxCell>
        <mxCell id="00F6EFA50dviSRzl4qSe-162" value="&lt;font style=&quot;font-size: 10px;&quot;&gt;A&amp;nbsp;&lt;/font&gt;&lt;span style=&quot;font-size: 14px;&quot;&gt;●&lt;/span&gt;&lt;span style=&quot;font-size: 14px;&quot;&gt;●&lt;/span&gt;&lt;span style=&quot;font-size: 14px;&quot;&gt;●&lt;/span&gt;&lt;span style=&quot;font-size: 14px;&quot;&gt;○&lt;/span&gt;" style="text;html=1;align=right;verticalAlign=bottom;resizable=0;points=[];autosize=1;fontColor=default;spacing=0;spacingRight=4;spacingBottom=-2;fontFamily=Helvetica;fontSize=11;labelBackgroundColor=none;" vertex="1" parent="00F6EFA50dviSRzl4qSe-160">
          <mxGeometry x="60" y="47" width="60" height="20" as="geometry" />
        </mxCell>
        <mxCell id="00F6EFA50dviSRzl4qSe-163" value="" style="group;fontFamily=Helvetica;fontSize=11;labelBackgroundColor=none;" vertex="1" connectable="0" parent="1">
          <mxGeometry x="-579" y="-1770" width="120" height="75" as="geometry" />
        </mxCell>
        <mxCell id="00F6EFA50dviSRzl4qSe-164" value="&lt;span style=&quot;font-weight: normal;&quot;&gt;Viscous Solution&lt;/span&gt;" style="rounded=1;whiteSpace=wrap;html=1;strokeColor=#000000;fillColor=#BFFFFF;fontColor=#000000;fontStyle=1;fontFamily=Helvetica;fontSize=11;labelBackgroundColor=none;" vertex="1" parent="00F6EFA50dviSRzl4qSe-163">
          <mxGeometry y="7" width="120" height="60" as="geometry" />
        </mxCell>
        <mxCell id="00F6EFA50dviSRzl4qSe-165" value="&lt;font style=&quot;font-size: 10px;&quot;&gt;D&amp;nbsp;&lt;/font&gt;&lt;span style=&quot;font-size: 14px;&quot;&gt;●&lt;/span&gt;&lt;span style=&quot;font-size: 14px;&quot;&gt;●&lt;/span&gt;&lt;span style=&quot;font-size: 14px;&quot;&gt;○&lt;/span&gt;&lt;span style=&quot;font-size: 14px;&quot;&gt;○&lt;/span&gt;" style="text;html=1;align=right;verticalAlign=bottom;resizable=0;points=[];autosize=1;fontColor=default;spacing=0;spacingRight=4;spacingBottom=-2;fontFamily=Helvetica;fontSize=11;labelBackgroundColor=none;" vertex="1" parent="00F6EFA50dviSRzl4qSe-163">
          <mxGeometry x="50" y="47" width="70" height="20" as="geometry" />
        </mxCell>
        <mxCell id="00F6EFA50dviSRzl4qSe-166" value="" style="endArrow=none;html=1;rounded=0;strokeColor=default;align=center;verticalAlign=middle;fontFamily=Helvetica;fontSize=11;fontColor=default;labelBackgroundColor=default;edgeStyle=orthogonalEdgeStyle;curved=1;entryX=1;entryY=0.5;entryDx=0;entryDy=0;exitX=0;exitY=0.5;exitDx=0;exitDy=0;" edge="1" parent="1" source="00F6EFA50dviSRzl4qSe-164" target="00F6EFA50dviSRzl4qSe-154">
          <mxGeometry width="50" height="50" relative="1" as="geometry">
            <mxPoint x="-590" y="-1729" as="sourcePoint" />
            <mxPoint x="-460" y="-1780" as="targetPoint" />
          </mxGeometry>
        </mxCell>
        <mxCell id="00F6EFA50dviSRzl4qSe-167" value="" style="endArrow=none;html=1;rounded=0;strokeColor=default;align=center;verticalAlign=middle;fontFamily=Helvetica;fontSize=11;fontColor=default;labelBackgroundColor=default;edgeStyle=orthogonalEdgeStyle;curved=1;entryX=1;entryY=0.5;entryDx=0;entryDy=0;exitX=0;exitY=0.5;exitDx=0;exitDy=0;" edge="1" parent="1" source="00F6EFA50dviSRzl4qSe-161" target="00F6EFA50dviSRzl4qSe-154">
          <mxGeometry width="50" height="50" relative="1" as="geometry">
            <mxPoint x="-569" y="-1723" as="sourcePoint" />
            <mxPoint x="-930" y="-1723" as="targetPoint" />
          </mxGeometry>
        </mxCell>
        <mxCell id="00F6EFA50dviSRzl4qSe-168" value="" style="endArrow=none;html=1;rounded=0;strokeColor=default;align=center;verticalAlign=middle;fontFamily=Helvetica;fontSize=11;fontColor=default;labelBackgroundColor=default;edgeStyle=orthogonalEdgeStyle;curved=1;entryX=1;entryY=0.5;entryDx=0;entryDy=0;exitX=0;exitY=0.5;exitDx=0;exitDy=0;" edge="1" parent="1" source="00F6EFA50dviSRzl4qSe-140" target="00F6EFA50dviSRzl4qSe-154">
          <mxGeometry width="50" height="50" relative="1" as="geometry">
            <mxPoint x="-569" y="-1643" as="sourcePoint" />
            <mxPoint x="-930" y="-1723" as="targetPoint" />
          </mxGeometry>
        </mxCell>
        <mxCell id="00F6EFA50dviSRzl4qSe-169" value="" style="endArrow=none;html=1;rounded=0;strokeColor=default;align=center;verticalAlign=middle;fontFamily=Helvetica;fontSize=11;fontColor=default;labelBackgroundColor=default;edgeStyle=orthogonalEdgeStyle;curved=1;entryX=1;entryY=0.5;entryDx=0;entryDy=0;exitX=0;exitY=0.5;exitDx=0;exitDy=0;" edge="1" parent="1" source="00F6EFA50dviSRzl4qSe-148" target="00F6EFA50dviSRzl4qSe-161">
          <mxGeometry width="50" height="50" relative="1" as="geometry">
            <mxPoint x="-250" y="-1803" as="sourcePoint" />
            <mxPoint x="-930" y="-1723" as="targetPoint" />
          </mxGeometry>
        </mxCell>
        <mxCell id="00F6EFA50dviSRzl4qSe-170" value="" style="endArrow=none;html=1;rounded=0;strokeColor=default;align=center;verticalAlign=middle;fontFamily=Helvetica;fontSize=11;fontColor=default;labelBackgroundColor=default;edgeStyle=orthogonalEdgeStyle;curved=1;exitX=0;exitY=0.5;exitDx=0;exitDy=0;entryX=1;entryY=0.5;entryDx=0;entryDy=0;" edge="1" parent="1" source="00F6EFA50dviSRzl4qSe-144" target="00F6EFA50dviSRzl4qSe-164">
          <mxGeometry width="50" height="50" relative="1" as="geometry">
            <mxPoint x="-250" y="-1803" as="sourcePoint" />
            <mxPoint x="-460" y="-1733" as="targetPoint" />
          </mxGeometry>
        </mxCell>
        <mxCell id="00F6EFA50dviSRzl4qSe-171" value="" style="endArrow=none;html=1;rounded=0;strokeColor=default;align=center;verticalAlign=middle;fontFamily=Helvetica;fontSize=11;fontColor=default;labelBackgroundColor=default;edgeStyle=orthogonalEdgeStyle;curved=1;exitX=0;exitY=0.5;exitDx=0;exitDy=0;entryX=1;entryY=0.5;entryDx=0;entryDy=0;" edge="1" parent="1" source="00F6EFA50dviSRzl4qSe-151" target="00F6EFA50dviSRzl4qSe-140">
          <mxGeometry width="50" height="50" relative="1" as="geometry">
            <mxPoint x="-250" y="-1723" as="sourcePoint" />
            <mxPoint x="-449" y="-1723" as="targetPoint" />
          </mxGeometry>
        </mxCell>
        <mxCell id="00F6EFA50dviSRzl4qSe-172" value="" style="group;fontFamily=Helvetica;fontSize=11;fontColor=default;labelBackgroundColor=none;" vertex="1" connectable="0" parent="1">
          <mxGeometry x="-260" y="-1610" width="120" height="75" as="geometry" />
        </mxCell>
        <mxCell id="00F6EFA50dviSRzl4qSe-173" value="Worm&#39;s Mist" style="rounded=1;whiteSpace=wrap;html=1;strokeColor=#000000;fillColor=#9662D0;fontColor=#000000;fontStyle=1;fontFamily=Helvetica;fontSize=11;labelBackgroundColor=none;" vertex="1" parent="00F6EFA50dviSRzl4qSe-172">
          <mxGeometry y="7" width="120" height="60" as="geometry" />
        </mxCell>
        <mxCell id="00F6EFA50dviSRzl4qSe-174" value="&lt;font style=&quot;font-size: 10px;&quot;&gt;W&amp;nbsp;&lt;/font&gt;&lt;span style=&quot;font-size: 14px;&quot;&gt;●&lt;/span&gt;&lt;span style=&quot;font-size: 14px;&quot;&gt;●&lt;/span&gt;&lt;span style=&quot;font-size: 14px;&quot;&gt;○&lt;/span&gt;&lt;span style=&quot;font-size: 14px;&quot;&gt;○&lt;/span&gt;" style="text;html=1;align=right;verticalAlign=bottom;resizable=0;points=[];autosize=1;fontColor=default;spacing=0;spacingRight=4;spacingBottom=-2;fontFamily=Helvetica;fontSize=11;labelBackgroundColor=none;" vertex="1" parent="00F6EFA50dviSRzl4qSe-172">
          <mxGeometry x="50" y="47" width="70" height="20" as="geometry" />
        </mxCell>
        <mxCell id="00F6EFA50dviSRzl4qSe-175" value="&lt;font style=&quot;font-size: 10px;&quot; color=&quot;#000000&quot;&gt;&lt;i style=&quot;font-size: 10px;&quot;&gt;Requires:&lt;/i&gt;&lt;/font&gt;&lt;div&gt;&lt;span style=&quot;font-size: 10px;&quot;&gt;&lt;i&gt;BUE or KS&lt;/i&gt;&lt;/span&gt;&lt;/div&gt;" style="text;html=1;align=left;verticalAlign=middle;resizable=0;points=[];autosize=1;strokeColor=none;fillColor=none;fontSize=11;fontFamily=Helvetica;fontColor=default;labelBackgroundColor=none;" vertex="1" parent="00F6EFA50dviSRzl4qSe-172">
          <mxGeometry x="1" y="35" width="70" height="40" as="geometry" />
        </mxCell>
        <mxCell id="00F6EFA50dviSRzl4qSe-176" value="" style="group;fontFamily=Helvetica;fontSize=11;fontColor=default;labelBackgroundColor=none;" vertex="1" connectable="0" parent="1">
          <mxGeometry x="-420" y="-1535" width="120" height="75" as="geometry" />
        </mxCell>
        <mxCell id="00F6EFA50dviSRzl4qSe-177" value="Calcified Hide" style="rounded=1;whiteSpace=wrap;html=1;strokeColor=#000000;fillColor=#9662D0;fontColor=#000000;fontStyle=1;fontFamily=Helvetica;fontSize=11;labelBackgroundColor=none;" vertex="1" parent="00F6EFA50dviSRzl4qSe-176">
          <mxGeometry y="7" width="120" height="60" as="geometry" />
        </mxCell>
        <mxCell id="00F6EFA50dviSRzl4qSe-178" value="&lt;font style=&quot;font-size: 10px;&quot;&gt;W&amp;nbsp;&lt;/font&gt;&lt;span style=&quot;font-size: 14px;&quot;&gt;●&lt;/span&gt;&lt;span style=&quot;font-size: 14px;&quot;&gt;●&lt;/span&gt;&lt;span style=&quot;font-size: 14px;&quot;&gt;○&lt;/span&gt;&lt;span style=&quot;font-size: 14px;&quot;&gt;○&lt;/span&gt;" style="text;html=1;align=right;verticalAlign=bottom;resizable=0;points=[];autosize=1;fontColor=default;spacing=0;spacingRight=4;spacingBottom=-2;fontFamily=Helvetica;fontSize=11;labelBackgroundColor=none;" vertex="1" parent="00F6EFA50dviSRzl4qSe-176">
          <mxGeometry x="50" y="47" width="70" height="20" as="geometry" />
        </mxCell>
        <mxCell id="00F6EFA50dviSRzl4qSe-179" value="&lt;font style=&quot;font-size: 10px;&quot; color=&quot;#000000&quot;&gt;&lt;i style=&quot;font-size: 10px;&quot;&gt;Requires:&lt;/i&gt;&lt;/font&gt;&lt;div&gt;&lt;span style=&quot;font-size: 10px;&quot;&gt;&lt;i&gt;BUE or KS&lt;/i&gt;&lt;/span&gt;&lt;/div&gt;" style="text;html=1;align=left;verticalAlign=middle;resizable=0;points=[];autosize=1;strokeColor=none;fillColor=none;fontSize=11;fontFamily=Helvetica;fontColor=default;labelBackgroundColor=none;" vertex="1" parent="00F6EFA50dviSRzl4qSe-176">
          <mxGeometry x="1" y="35" width="70" height="40" as="geometry" />
        </mxCell>
        <mxCell id="00F6EFA50dviSRzl4qSe-180" value="" style="group;fontFamily=Helvetica;fontSize=11;fontColor=default;labelBackgroundColor=none;" vertex="1" connectable="0" parent="1">
          <mxGeometry x="-740" y="-1535" width="120" height="75" as="geometry" />
        </mxCell>
        <mxCell id="00F6EFA50dviSRzl4qSe-181" value="Butcher&#39;s Eye" style="rounded=1;whiteSpace=wrap;html=1;strokeColor=#000000;fillColor=#9662D0;fontColor=#000000;fontStyle=1;fontFamily=Helvetica;fontSize=11;labelBackgroundColor=none;" vertex="1" parent="00F6EFA50dviSRzl4qSe-180">
          <mxGeometry y="7" width="120" height="60" as="geometry" />
        </mxCell>
        <mxCell id="00F6EFA50dviSRzl4qSe-182" value="&lt;font style=&quot;font-size: 10px;&quot;&gt;A&amp;nbsp;&lt;/font&gt;&lt;span style=&quot;font-size: 14px;&quot;&gt;●&lt;/span&gt;&lt;span style=&quot;font-size: 14px;&quot;&gt;●&lt;/span&gt;&lt;span style=&quot;font-size: 14px;&quot;&gt;○&lt;/span&gt;&lt;span style=&quot;font-size: 14px;&quot;&gt;○&lt;/span&gt;" style="text;html=1;align=right;verticalAlign=bottom;resizable=0;points=[];autosize=1;fontColor=default;spacing=0;spacingRight=4;spacingBottom=-2;fontFamily=Helvetica;fontSize=11;labelBackgroundColor=none;" vertex="1" parent="00F6EFA50dviSRzl4qSe-180">
          <mxGeometry x="60" y="47" width="60" height="20" as="geometry" />
        </mxCell>
        <mxCell id="00F6EFA50dviSRzl4qSe-185" value="" style="group;fontFamily=Helvetica;fontSize=11;fontColor=default;labelBackgroundColor=none;" vertex="1" connectable="0" parent="1">
          <mxGeometry x="-740" y="-1610" width="120" height="75" as="geometry" />
        </mxCell>
        <mxCell id="00F6EFA50dviSRzl4qSe-186" value="Kura-Silma" style="rounded=1;whiteSpace=wrap;html=1;strokeColor=#000000;fillColor=#9662D0;fontColor=#000000;fontStyle=1;fontFamily=Helvetica;fontSize=11;labelBackgroundColor=none;" vertex="1" parent="00F6EFA50dviSRzl4qSe-185">
          <mxGeometry y="7" width="120" height="60" as="geometry" />
        </mxCell>
        <mxCell id="00F6EFA50dviSRzl4qSe-187" value="&lt;font style=&quot;font-size: 10px;&quot;&gt;A&amp;nbsp;&lt;/font&gt;&lt;span style=&quot;font-size: 14px;&quot;&gt;●&lt;/span&gt;&lt;span style=&quot;font-size: 14px;&quot;&gt;●&lt;/span&gt;&lt;span style=&quot;font-size: 14px;&quot;&gt;○&lt;/span&gt;&lt;span style=&quot;font-size: 14px;&quot;&gt;○&lt;/span&gt;" style="text;html=1;align=right;verticalAlign=bottom;resizable=0;points=[];autosize=1;fontColor=default;spacing=0;spacingRight=4;spacingBottom=-2;fontFamily=Helvetica;fontSize=11;labelBackgroundColor=none;" vertex="1" parent="00F6EFA50dviSRzl4qSe-185">
          <mxGeometry x="60" y="47" width="60" height="20" as="geometry" />
        </mxCell>
        <mxCell id="00F6EFA50dviSRzl4qSe-188" value="" style="group;fontFamily=Helvetica;fontSize=11;fontColor=default;labelBackgroundColor=none;" vertex="1" connectable="0" parent="1">
          <mxGeometry x="-579" y="-1450" width="120" height="75" as="geometry" />
        </mxCell>
        <mxCell id="00F6EFA50dviSRzl4qSe-189" value="Chirurgia" style="rounded=1;whiteSpace=wrap;html=1;strokeColor=#000000;fillColor=#9662D0;fontColor=#000000;fontStyle=1;fontFamily=Helvetica;fontSize=11;labelBackgroundColor=none;" vertex="1" parent="00F6EFA50dviSRzl4qSe-188">
          <mxGeometry y="7" width="120" height="60" as="geometry" />
        </mxCell>
        <mxCell id="00F6EFA50dviSRzl4qSe-190" value="&lt;font style=&quot;font-size: 10px;&quot;&gt;M&amp;nbsp;&lt;/font&gt;&lt;font style=&quot;font-size: 14px;&quot;&gt;●&lt;/font&gt;&lt;span style=&quot;font-size: 14px;&quot;&gt;○&lt;/span&gt;&lt;span style=&quot;font-size: 14px;&quot;&gt;○&lt;/span&gt;&lt;span style=&quot;font-size: 14px;&quot;&gt;○&lt;/span&gt;" style="text;html=1;align=right;verticalAlign=bottom;resizable=0;points=[];autosize=1;fontColor=default;spacing=0;spacingRight=4;spacingBottom=-2;fontFamily=Helvetica;fontSize=11;labelBackgroundColor=none;" vertex="1" parent="00F6EFA50dviSRzl4qSe-188">
          <mxGeometry x="50" y="47" width="70" height="20" as="geometry" />
        </mxCell>
        <mxCell id="00F6EFA50dviSRzl4qSe-191" value="" style="group;fontFamily=Helvetica;fontSize=11;fontColor=default;labelBackgroundColor=none;" vertex="1" connectable="0" parent="1">
          <mxGeometry x="-900" y="-1570" width="120" height="75" as="geometry" />
        </mxCell>
        <mxCell id="00F6EFA50dviSRzl4qSe-192" value="Ivory mask" style="rounded=1;whiteSpace=wrap;html=1;strokeColor=#000000;fillColor=#9662D0;fontColor=#000000;fontStyle=1;fontFamily=Helvetica;fontSize=11;labelBackgroundColor=none;" vertex="1" parent="00F6EFA50dviSRzl4qSe-191">
          <mxGeometry y="7" width="120" height="60" as="geometry" />
        </mxCell>
        <mxCell id="00F6EFA50dviSRzl4qSe-193" value="&lt;font style=&quot;font-size: 10px;&quot;&gt;A&amp;nbsp;&lt;/font&gt;&lt;font style=&quot;font-size: 14px;&quot;&gt;●&lt;/font&gt;&lt;span style=&quot;font-size: 14px;&quot;&gt;○&lt;/span&gt;&lt;span style=&quot;font-size: 14px;&quot;&gt;○&lt;/span&gt;&lt;span style=&quot;font-size: 14px;&quot;&gt;○&lt;/span&gt;" style="text;html=1;align=right;verticalAlign=bottom;resizable=0;points=[];autosize=1;fontColor=default;spacing=0;spacingRight=4;spacingBottom=-2;fontFamily=Helvetica;fontSize=11;labelBackgroundColor=none;" vertex="1" parent="00F6EFA50dviSRzl4qSe-191">
          <mxGeometry x="60" y="47" width="60" height="20" as="geometry" />
        </mxCell>
        <mxCell id="00F6EFA50dviSRzl4qSe-194" value="&lt;font style=&quot;font-size: 8px;&quot; color=&quot;#000000&quot;&gt;&lt;i style=&quot;&quot;&gt;Requires: Two of&lt;/i&gt;&lt;/font&gt;&lt;div&gt;&lt;i style=&quot;&quot;&gt;&lt;font style=&quot;font-size: 8px;&quot;&gt;OBF, ACS, or HP&lt;/font&gt;&lt;/i&gt;&lt;/div&gt;" style="text;html=1;align=left;verticalAlign=middle;resizable=0;points=[];autosize=1;strokeColor=none;fillColor=none;fontSize=11;fontFamily=Helvetica;fontColor=default;labelBackgroundColor=none;" vertex="1" parent="00F6EFA50dviSRzl4qSe-191">
          <mxGeometry x="4" y="35" width="80" height="40" as="geometry" />
        </mxCell>
        <mxCell id="00F6EFA50dviSRzl4qSe-195" value="" style="endArrow=none;html=1;rounded=0;strokeColor=default;align=center;verticalAlign=middle;fontFamily=Helvetica;fontSize=11;fontColor=default;labelBackgroundColor=default;edgeStyle=orthogonalEdgeStyle;curved=1;exitX=1;exitY=0.5;exitDx=0;exitDy=0;entryX=0;entryY=0.5;entryDx=0;entryDy=0;" edge="1" parent="1" source="00F6EFA50dviSRzl4qSe-192" target="00F6EFA50dviSRzl4qSe-186">
          <mxGeometry width="50" height="50" relative="1" as="geometry">
            <mxPoint x="-530" y="-1610" as="sourcePoint" />
            <mxPoint x="-480" y="-1660" as="targetPoint" />
          </mxGeometry>
        </mxCell>
        <mxCell id="00F6EFA50dviSRzl4qSe-196" value="" style="endArrow=none;html=1;rounded=0;strokeColor=default;align=center;verticalAlign=middle;fontFamily=Helvetica;fontSize=11;fontColor=default;labelBackgroundColor=default;edgeStyle=orthogonalEdgeStyle;curved=1;exitX=1;exitY=0.5;exitDx=0;exitDy=0;entryX=0;entryY=0.5;entryDx=0;entryDy=0;" edge="1" parent="1" source="00F6EFA50dviSRzl4qSe-192" target="00F6EFA50dviSRzl4qSe-181">
          <mxGeometry width="50" height="50" relative="1" as="geometry">
            <mxPoint x="-770" y="-1523" as="sourcePoint" />
            <mxPoint x="-730" y="-1563" as="targetPoint" />
          </mxGeometry>
        </mxCell>
        <mxCell id="00F6EFA50dviSRzl4qSe-197" value="" style="endArrow=none;html=1;rounded=0;strokeColor=default;align=center;verticalAlign=middle;fontFamily=Helvetica;fontSize=11;fontColor=default;labelBackgroundColor=default;edgeStyle=orthogonalEdgeStyle;curved=1;exitX=1;exitY=0.5;exitDx=0;exitDy=0;entryX=0;entryY=0.5;entryDx=0;entryDy=0;" edge="1" parent="1" source="00F6EFA50dviSRzl4qSe-181" target="00F6EFA50dviSRzl4qSe-189">
          <mxGeometry width="50" height="50" relative="1" as="geometry">
            <mxPoint x="-770" y="-1523" as="sourcePoint" />
            <mxPoint x="-730" y="-1488" as="targetPoint" />
          </mxGeometry>
        </mxCell>
        <mxCell id="00F6EFA50dviSRzl4qSe-198" value="" style="endArrow=none;html=1;rounded=0;curved=1;entryX=0;entryY=0.5;entryDx=0;entryDy=0;exitX=1;exitY=0.5;exitDx=0;exitDy=0;edgeStyle=orthogonalEdgeStyle;dashed=1;labelBackgroundColor=none;" edge="1" parent="1" source="00F6EFA50dviSRzl4qSe-186" target="00F6EFA50dviSRzl4qSe-173">
          <mxGeometry width="50" height="50" relative="1" as="geometry">
            <mxPoint x="-581.48" y="-1549" as="sourcePoint" />
            <mxPoint x="-420.48" y="-1570" as="targetPoint" />
          </mxGeometry>
        </mxCell>
        <mxCell id="00F6EFA50dviSRzl4qSe-199" value="" style="endArrow=none;html=1;rounded=0;curved=1;exitX=1;exitY=0.5;exitDx=0;exitDy=0;edgeStyle=orthogonalEdgeStyle;dashed=1;labelBackgroundColor=none;entryX=0;entryY=0.5;entryDx=0;entryDy=0;" edge="1" parent="1" source="00F6EFA50dviSRzl4qSe-181" target="00F6EFA50dviSRzl4qSe-173">
          <mxGeometry width="50" height="50" relative="1" as="geometry">
            <mxPoint x="-610" y="-1563" as="sourcePoint" />
            <mxPoint x="-260" y="-1570" as="targetPoint" />
          </mxGeometry>
        </mxCell>
        <mxCell id="00F6EFA50dviSRzl4qSe-200" value="" style="endArrow=none;html=1;rounded=0;curved=1;exitX=1;exitY=0.5;exitDx=0;exitDy=0;edgeStyle=orthogonalEdgeStyle;dashed=1;labelBackgroundColor=none;entryX=0;entryY=0.5;entryDx=0;entryDy=0;" edge="1" parent="1" source="00F6EFA50dviSRzl4qSe-181" target="00F6EFA50dviSRzl4qSe-177">
          <mxGeometry width="50" height="50" relative="1" as="geometry">
            <mxPoint x="-610" y="-1488" as="sourcePoint" />
            <mxPoint x="-430" y="-1500" as="targetPoint" />
          </mxGeometry>
        </mxCell>
        <mxCell id="00F6EFA50dviSRzl4qSe-201" value="" style="endArrow=none;html=1;rounded=0;curved=1;exitX=1;exitY=0.5;exitDx=0;exitDy=0;edgeStyle=orthogonalEdgeStyle;dashed=1;labelBackgroundColor=none;entryX=0;entryY=0.5;entryDx=0;entryDy=0;" edge="1" parent="1" source="00F6EFA50dviSRzl4qSe-186" target="00F6EFA50dviSRzl4qSe-177">
          <mxGeometry width="50" height="50" relative="1" as="geometry">
            <mxPoint x="-610" y="-1488" as="sourcePoint" />
            <mxPoint x="-410" y="-1488" as="targetPoint" />
          </mxGeometry>
        </mxCell>
        <mxCell id="00F6EFA50dviSRzl4qSe-202" value="" style="endArrow=none;html=1;rounded=0;curved=1;entryX=0;entryY=0.5;entryDx=0;entryDy=0;exitX=1;exitY=0.5;exitDx=0;exitDy=0;edgeStyle=orthogonalEdgeStyle;dashed=1;labelBackgroundColor=none;" edge="1" parent="1" source="00F6EFA50dviSRzl4qSe-154" target="00F6EFA50dviSRzl4qSe-192">
          <mxGeometry width="50" height="50" relative="1" as="geometry">
            <mxPoint x="-610" y="-1563" as="sourcePoint" />
            <mxPoint x="-250" y="-1563" as="targetPoint" />
          </mxGeometry>
        </mxCell>
        <mxCell id="00F6EFA50dviSRzl4qSe-203" value="" style="endArrow=none;html=1;rounded=0;curved=1;edgeStyle=orthogonalEdgeStyle;dashed=1;labelBackgroundColor=none;exitX=1;exitY=0.5;exitDx=0;exitDy=0;entryX=0;entryY=0.5;entryDx=0;entryDy=0;" edge="1" parent="1" source="8By_QkY793YM4N230Kt9-1" target="00F6EFA50dviSRzl4qSe-192">
          <mxGeometry width="50" height="50" relative="1" as="geometry">
            <mxPoint x="-860" y="-1980" as="sourcePoint" />
            <mxPoint x="-860" y="-1630" as="targetPoint" />
          </mxGeometry>
        </mxCell>
        <mxCell id="00F6EFA50dviSRzl4qSe-204" value="" style="group;fontFamily=Helvetica;fontSize=11;fontColor=default;labelBackgroundColor=none;" vertex="1" connectable="0" parent="1">
          <mxGeometry x="-260" y="-1350" width="120" height="75" as="geometry" />
        </mxCell>
        <mxCell id="00F6EFA50dviSRzl4qSe-205" value="Devour" style="rounded=1;whiteSpace=wrap;html=1;strokeColor=#000000;fillColor=#FF8080;fontColor=#000000;fontStyle=1;fontFamily=Helvetica;fontSize=11;labelBackgroundColor=none;" vertex="1" parent="00F6EFA50dviSRzl4qSe-204">
          <mxGeometry y="7" width="120" height="60" as="geometry" />
        </mxCell>
        <mxCell id="00F6EFA50dviSRzl4qSe-206" value="&lt;font style=&quot;font-size: 10px;&quot;&gt;U&amp;nbsp;&lt;/font&gt;&lt;span style=&quot;font-size: 14px;&quot;&gt;●&lt;/span&gt;&lt;span style=&quot;font-size: 14px;&quot;&gt;●&lt;/span&gt;&lt;span style=&quot;font-size: 14px;&quot;&gt;●&lt;/span&gt;&lt;span style=&quot;font-size: 14px;&quot;&gt;○&lt;/span&gt;" style="text;html=1;align=right;verticalAlign=bottom;resizable=0;points=[];autosize=1;fontColor=default;spacing=0;spacingRight=4;spacingBottom=-2;fontFamily=Helvetica;fontSize=11;labelBackgroundColor=none;" vertex="1" parent="00F6EFA50dviSRzl4qSe-204">
          <mxGeometry x="50" y="47" width="70" height="20" as="geometry" />
        </mxCell>
        <mxCell id="00F6EFA50dviSRzl4qSe-207" value="&lt;font style=&quot;font-size: 10px;&quot; color=&quot;#000000&quot;&gt;&lt;i style=&quot;font-size: 10px;&quot;&gt;Circle 50&lt;/i&gt;&lt;/font&gt;" style="text;html=1;align=right;verticalAlign=middle;resizable=0;points=[];autosize=1;strokeColor=none;fillColor=none;fontSize=11;fontFamily=Helvetica;fontColor=default;labelBackgroundColor=none;" vertex="1" parent="00F6EFA50dviSRzl4qSe-204">
          <mxGeometry x="56" width="60" height="30" as="geometry" />
        </mxCell>
        <mxCell id="00F6EFA50dviSRzl4qSe-208" value="" style="group;fontFamily=Helvetica;fontSize=11;fontColor=default;labelBackgroundColor=none;" vertex="1" connectable="0" parent="1">
          <mxGeometry x="-420" y="-1350" width="120" height="75" as="geometry" />
        </mxCell>
        <mxCell id="00F6EFA50dviSRzl4qSe-209" value="Consume Flesh" style="rounded=1;whiteSpace=wrap;html=1;strokeColor=#000000;fillColor=#FF8080;fontColor=#000000;fontStyle=1;fontFamily=Helvetica;fontSize=11;labelBackgroundColor=none;" vertex="1" parent="00F6EFA50dviSRzl4qSe-208">
          <mxGeometry y="7" width="120" height="60" as="geometry" />
        </mxCell>
        <mxCell id="00F6EFA50dviSRzl4qSe-210" value="&lt;font style=&quot;font-size: 10px;&quot;&gt;U&amp;nbsp;&lt;/font&gt;&lt;span style=&quot;font-size: 14px;&quot;&gt;●&lt;/span&gt;&lt;span style=&quot;font-size: 14px;&quot;&gt;●&lt;/span&gt;&lt;span style=&quot;font-size: 14px;&quot;&gt;○&lt;/span&gt;&lt;span style=&quot;font-size: 14px;&quot;&gt;○&lt;/span&gt;" style="text;html=1;align=right;verticalAlign=bottom;resizable=0;points=[];autosize=1;fontColor=default;spacing=0;spacingRight=4;spacingBottom=-2;fontFamily=Helvetica;fontSize=11;labelBackgroundColor=none;" vertex="1" parent="00F6EFA50dviSRzl4qSe-208">
          <mxGeometry x="50" y="47" width="70" height="20" as="geometry" />
        </mxCell>
        <mxCell id="00F6EFA50dviSRzl4qSe-211" value="&lt;font style=&quot;font-size: 10px;&quot; color=&quot;#000000&quot;&gt;&lt;i style=&quot;font-size: 10px;&quot;&gt;Circle 15&lt;/i&gt;&lt;/font&gt;" style="text;html=1;align=right;verticalAlign=middle;resizable=0;points=[];autosize=1;strokeColor=none;fillColor=none;fontSize=11;fontFamily=Helvetica;fontColor=default;labelBackgroundColor=none;" vertex="1" parent="00F6EFA50dviSRzl4qSe-208">
          <mxGeometry x="56" width="60" height="30" as="geometry" />
        </mxCell>
        <mxCell id="00F6EFA50dviSRzl4qSe-212" value="" style="group;fontFamily=Helvetica;fontSize=11;fontColor=default;labelBackgroundColor=none;" vertex="1" connectable="0" parent="1">
          <mxGeometry x="-580" y="-1350" width="120" height="75" as="geometry" />
        </mxCell>
        <mxCell id="00F6EFA50dviSRzl4qSe-213" value="Siphon Vitality" style="rounded=1;whiteSpace=wrap;html=1;strokeColor=#000000;fillColor=#FF8080;fontColor=#000000;fontStyle=0;fontFamily=Helvetica;fontSize=11;labelBackgroundColor=none;" vertex="1" parent="00F6EFA50dviSRzl4qSe-212">
          <mxGeometry y="7" width="120" height="60" as="geometry" />
        </mxCell>
        <mxCell id="00F6EFA50dviSRzl4qSe-214" value="&lt;font style=&quot;font-size: 10px;&quot;&gt;T&amp;nbsp;&lt;/font&gt;&lt;span style=&quot;font-size: 14px;&quot;&gt;●&lt;/span&gt;&lt;span style=&quot;font-size: 14px;&quot;&gt;●&lt;/span&gt;&lt;span style=&quot;font-size: 14px;&quot;&gt;○&lt;/span&gt;&lt;span style=&quot;font-size: 14px;&quot;&gt;○&lt;/span&gt;" style="text;html=1;align=right;verticalAlign=bottom;resizable=0;points=[];autosize=1;fontColor=default;spacing=0;spacingRight=4;spacingBottom=-2;fontFamily=Helvetica;fontSize=11;labelBackgroundColor=none;" vertex="1" parent="00F6EFA50dviSRzl4qSe-212">
          <mxGeometry x="60" y="47" width="60" height="20" as="geometry" />
        </mxCell>
        <mxCell id="00F6EFA50dviSRzl4qSe-216" value="" style="group;fontFamily=Helvetica;fontSize=11;fontColor=default;labelBackgroundColor=none;fontStyle=0" vertex="1" connectable="0" parent="1">
          <mxGeometry x="-580" y="-1270" width="120" height="75" as="geometry" />
        </mxCell>
        <mxCell id="00F6EFA50dviSRzl4qSe-217" value="Blood Burst" style="rounded=1;whiteSpace=wrap;html=1;strokeColor=#000000;fillColor=#FF8080;fontColor=#000000;fontStyle=0;fontFamily=Helvetica;fontSize=11;labelBackgroundColor=none;" vertex="1" parent="00F6EFA50dviSRzl4qSe-216">
          <mxGeometry y="7" width="120" height="60" as="geometry" />
        </mxCell>
        <mxCell id="00F6EFA50dviSRzl4qSe-218" value="&lt;font style=&quot;font-size: 10px;&quot;&gt;T&amp;nbsp;&lt;/font&gt;&lt;span style=&quot;font-size: 14px;&quot;&gt;●&lt;/span&gt;&lt;span style=&quot;font-size: 14px;&quot;&gt;●&lt;/span&gt;&lt;span style=&quot;font-size: 14px;&quot;&gt;○&lt;/span&gt;&lt;span style=&quot;font-size: 14px;&quot;&gt;○&lt;/span&gt;" style="text;html=1;align=right;verticalAlign=bottom;resizable=0;points=[];autosize=1;fontColor=default;spacing=0;spacingRight=4;spacingBottom=-2;fontFamily=Helvetica;fontSize=11;labelBackgroundColor=none;" vertex="1" parent="00F6EFA50dviSRzl4qSe-216">
          <mxGeometry x="60" y="47" width="60" height="20" as="geometry" />
        </mxCell>
        <mxCell id="00F6EFA50dviSRzl4qSe-219" value="" style="group;fontFamily=Helvetica;fontSize=11;fontColor=default;labelBackgroundColor=none;" vertex="1" connectable="0" parent="1">
          <mxGeometry x="-1060" y="-1350" width="120" height="75" as="geometry" />
        </mxCell>
        <mxCell id="00F6EFA50dviSRzl4qSe-220" value="&lt;span style=&quot;font-weight: normal;&quot;&gt;Heighten Pain&lt;/span&gt;" style="rounded=1;whiteSpace=wrap;html=1;strokeColor=#000000;fillColor=#FF8080;fontColor=#000000;fontStyle=1;fontFamily=Helvetica;fontSize=11;labelBackgroundColor=none;" vertex="1" parent="00F6EFA50dviSRzl4qSe-219">
          <mxGeometry y="7" width="120" height="60" as="geometry" />
        </mxCell>
        <mxCell id="00F6EFA50dviSRzl4qSe-221" value="&lt;font style=&quot;font-size: 10px;&quot;&gt;D&amp;nbsp;&lt;/font&gt;&lt;span style=&quot;font-size: 14px;&quot;&gt;●&lt;/span&gt;&lt;span style=&quot;font-size: 14px;&quot;&gt;○&lt;/span&gt;&lt;span style=&quot;font-size: 14px;&quot;&gt;○&lt;/span&gt;&lt;span style=&quot;font-size: 14px;&quot;&gt;○&lt;/span&gt;" style="text;html=1;align=right;verticalAlign=bottom;resizable=0;points=[];autosize=1;fontColor=default;spacing=0;spacingRight=4;spacingBottom=-2;fontFamily=Helvetica;fontSize=11;labelBackgroundColor=none;" vertex="1" parent="00F6EFA50dviSRzl4qSe-219">
          <mxGeometry x="50" y="47" width="70" height="20" as="geometry" />
        </mxCell>
        <mxCell id="00F6EFA50dviSRzl4qSe-222" value="" style="group;fontFamily=Helvetica;fontSize=11;fontColor=default;labelBackgroundColor=none;" vertex="1" connectable="0" parent="1">
          <mxGeometry x="-420" y="-1270" width="120" height="75" as="geometry" />
        </mxCell>
        <mxCell id="00F6EFA50dviSRzl4qSe-223" value="Resection" style="rounded=1;whiteSpace=wrap;html=1;strokeColor=#000000;fillColor=#FF8080;fontColor=#000000;fontStyle=1;fontFamily=Helvetica;fontSize=11;labelBackgroundColor=none;" vertex="1" parent="00F6EFA50dviSRzl4qSe-222">
          <mxGeometry y="7" width="120" height="60" as="geometry" />
        </mxCell>
        <mxCell id="00F6EFA50dviSRzl4qSe-224" value="&lt;font style=&quot;font-size: 10px;&quot;&gt;U&amp;nbsp;&lt;/font&gt;&lt;span style=&quot;font-size: 14px;&quot;&gt;●&lt;/span&gt;&lt;span style=&quot;font-size: 14px;&quot;&gt;●&lt;/span&gt;&lt;span style=&quot;font-size: 14px;&quot;&gt;○&lt;/span&gt;&lt;span style=&quot;font-size: 14px;&quot;&gt;○&lt;/span&gt;" style="text;html=1;align=right;verticalAlign=bottom;resizable=0;points=[];autosize=1;fontColor=default;spacing=0;spacingRight=4;spacingBottom=-2;fontFamily=Helvetica;fontSize=11;labelBackgroundColor=none;" vertex="1" parent="00F6EFA50dviSRzl4qSe-222">
          <mxGeometry x="50" y="47" width="70" height="20" as="geometry" />
        </mxCell>
        <mxCell id="00F6EFA50dviSRzl4qSe-226" value="" style="endArrow=none;html=1;rounded=0;strokeColor=default;align=center;verticalAlign=middle;fontFamily=Helvetica;fontSize=11;fontColor=default;labelBackgroundColor=default;edgeStyle=orthogonalEdgeStyle;curved=1;exitX=1;exitY=0.5;exitDx=0;exitDy=0;entryX=0;entryY=0.5;entryDx=0;entryDy=0;" edge="1" parent="1" source="00F6EFA50dviSRzl4qSe-220" target="00F6EFA50dviSRzl4qSe-213">
          <mxGeometry width="50" height="50" relative="1" as="geometry">
            <mxPoint x="-680" y="-1330" as="sourcePoint" />
            <mxPoint x="-630" y="-1380" as="targetPoint" />
          </mxGeometry>
        </mxCell>
        <mxCell id="00F6EFA50dviSRzl4qSe-227" value="" style="endArrow=none;html=1;rounded=0;strokeColor=default;align=center;verticalAlign=middle;fontFamily=Helvetica;fontSize=11;fontColor=default;labelBackgroundColor=default;edgeStyle=orthogonalEdgeStyle;curved=1;exitX=1;exitY=0.5;exitDx=0;exitDy=0;entryX=0;entryY=0.5;entryDx=0;entryDy=0;" edge="1" parent="1" source="00F6EFA50dviSRzl4qSe-220" target="00F6EFA50dviSRzl4qSe-217">
          <mxGeometry width="50" height="50" relative="1" as="geometry">
            <mxPoint x="-930" y="-1303" as="sourcePoint" />
            <mxPoint x="-570" y="-1303" as="targetPoint" />
          </mxGeometry>
        </mxCell>
        <mxCell id="00F6EFA50dviSRzl4qSe-228" value="" style="endArrow=none;html=1;rounded=0;strokeColor=default;align=center;verticalAlign=middle;fontFamily=Helvetica;fontSize=11;fontColor=default;labelBackgroundColor=default;edgeStyle=orthogonalEdgeStyle;curved=1;exitX=1;exitY=0.5;exitDx=0;exitDy=0;entryX=0;entryY=0.5;entryDx=0;entryDy=0;" edge="1" parent="1" source="00F6EFA50dviSRzl4qSe-213" target="00F6EFA50dviSRzl4qSe-209">
          <mxGeometry width="50" height="50" relative="1" as="geometry">
            <mxPoint x="-930" y="-1303" as="sourcePoint" />
            <mxPoint x="-570" y="-1223" as="targetPoint" />
          </mxGeometry>
        </mxCell>
        <mxCell id="00F6EFA50dviSRzl4qSe-229" value="" style="endArrow=none;html=1;rounded=0;strokeColor=default;align=center;verticalAlign=middle;fontFamily=Helvetica;fontSize=11;fontColor=default;labelBackgroundColor=default;edgeStyle=orthogonalEdgeStyle;curved=1;entryX=0;entryY=0.5;entryDx=0;entryDy=0;exitX=1;exitY=0.5;exitDx=0;exitDy=0;" edge="1" parent="1" source="00F6EFA50dviSRzl4qSe-209" target="00F6EFA50dviSRzl4qSe-205">
          <mxGeometry width="50" height="50" relative="1" as="geometry">
            <mxPoint x="-290" y="-1390" as="sourcePoint" />
            <mxPoint x="-410" y="-1303" as="targetPoint" />
          </mxGeometry>
        </mxCell>
        <mxCell id="00F6EFA50dviSRzl4qSe-230" value="" style="endArrow=none;html=1;rounded=0;strokeColor=default;align=center;verticalAlign=middle;fontFamily=Helvetica;fontSize=11;fontColor=default;labelBackgroundColor=default;edgeStyle=orthogonalEdgeStyle;curved=1;entryX=0.5;entryY=0;entryDx=0;entryDy=0;exitX=0.5;exitY=1;exitDx=0;exitDy=0;" edge="1" parent="1" source="00F6EFA50dviSRzl4qSe-209" target="00F6EFA50dviSRzl4qSe-223">
          <mxGeometry width="50" height="50" relative="1" as="geometry">
            <mxPoint x="-290" y="-1303" as="sourcePoint" />
            <mxPoint x="-250" y="-1303" as="targetPoint" />
          </mxGeometry>
        </mxCell>
        <mxCell id="00F6EFA50dviSRzl4qSe-231" value="Transcendental Necromancy" style="rounded=1;whiteSpace=wrap;html=1;strokeColor=#000000;fillColor=#9662D0;fontColor=#000000;labelBackgroundColor=none;" vertex="1" parent="1">
          <mxGeometry x="20" y="-1255" width="120" height="60" as="geometry" />
        </mxCell>
        <mxCell id="00F6EFA50dviSRzl4qSe-232" value="Blood Magic" style="rounded=1;whiteSpace=wrap;html=1;strokeColor=#000000;fillColor=#FF8080;fontColor=#000000;labelBackgroundColor=none;" vertex="1" parent="1">
          <mxGeometry x="20" y="-1170" width="120" height="60" as="geometry" />
        </mxCell>
        <mxCell id="00F6EFA50dviSRzl4qSe-233" value="Anabasis" style="rounded=1;whiteSpace=wrap;html=1;strokeColor=#000000;fillColor=#3A8EED;fontColor=#000000;labelBackgroundColor=none;" vertex="1" parent="1">
          <mxGeometry x="20" y="-1090" width="120" height="60" as="geometry" />
        </mxCell>
        <mxCell id="00F6EFA50dviSRzl4qSe-234" value="" style="endArrow=none;html=1;rounded=0;curved=1;exitX=1;exitY=0.5;exitDx=0;exitDy=0;edgeStyle=orthogonalEdgeStyle;dashed=1;labelBackgroundColor=none;entryX=0;entryY=0.5;entryDx=0;entryDy=0;" edge="1" parent="1" source="00F6EFA50dviSRzl4qSe-220" target="00F6EFA50dviSRzl4qSe-192">
          <mxGeometry width="50" height="50" relative="1" as="geometry">
            <mxPoint x="-930" y="-1723" as="sourcePoint" />
            <mxPoint x="-960" y="-1540" as="targetPoint" />
          </mxGeometry>
        </mxCell>
        <mxCell id="00F6EFA50dviSRzl4qSe-235" value="" style="group;fontFamily=Helvetica;fontSize=11;fontColor=default;labelBackgroundColor=none;" vertex="1" connectable="0" parent="1">
          <mxGeometry x="-260" y="-1099.5" width="120" height="75" as="geometry" />
        </mxCell>
        <mxCell id="00F6EFA50dviSRzl4qSe-236" value="Book Burning" style="rounded=1;whiteSpace=wrap;html=1;strokeColor=#000000;fillColor=#3A8EED;fontColor=#000000;fontStyle=1;fontFamily=Helvetica;fontSize=11;labelBackgroundColor=none;" vertex="1" parent="00F6EFA50dviSRzl4qSe-235">
          <mxGeometry y="7" width="120" height="60" as="geometry" />
        </mxCell>
        <mxCell id="00F6EFA50dviSRzl4qSe-237" value="&lt;font style=&quot;font-size: 10px;&quot;&gt;T/U&amp;nbsp;&lt;/font&gt;&lt;span style=&quot;font-size: 14px;&quot;&gt;●&lt;/span&gt;&lt;span style=&quot;font-size: 14px;&quot;&gt;●&lt;/span&gt;&lt;span style=&quot;font-size: 14px;&quot;&gt;●&lt;/span&gt;&lt;span style=&quot;font-size: 14px;&quot;&gt;○&lt;/span&gt;" style="text;html=1;align=right;verticalAlign=bottom;resizable=0;points=[];autosize=1;fontColor=default;spacing=0;spacingRight=4;spacingBottom=-2;fontFamily=Helvetica;fontSize=11;labelBackgroundColor=none;" vertex="1" parent="00F6EFA50dviSRzl4qSe-235">
          <mxGeometry x="50" y="47" width="70" height="20" as="geometry" />
        </mxCell>
        <mxCell id="00F6EFA50dviSRzl4qSe-238" value="" style="group;fontFamily=Helvetica;fontSize=11;fontColor=default;labelBackgroundColor=none;" vertex="1" connectable="0" parent="1">
          <mxGeometry x="-420" y="-1177.5" width="120" height="75" as="geometry" />
        </mxCell>
        <mxCell id="00F6EFA50dviSRzl4qSe-239" value="Ebon Blood of the Scorpion" style="rounded=1;whiteSpace=wrap;html=1;strokeColor=#000000;fillColor=#3A8EED;fontColor=#000000;fontStyle=1;fontFamily=Helvetica;fontSize=11;labelBackgroundColor=none;" vertex="1" parent="00F6EFA50dviSRzl4qSe-238">
          <mxGeometry y="7" width="120" height="60" as="geometry" />
        </mxCell>
        <mxCell id="00F6EFA50dviSRzl4qSe-240" value="&lt;font style=&quot;font-size: 10px;&quot;&gt;M&amp;nbsp;&lt;/font&gt;&lt;span style=&quot;font-size: 14px;&quot;&gt;●&lt;/span&gt;&lt;span style=&quot;font-size: 14px;&quot;&gt;●&lt;/span&gt;&lt;span style=&quot;font-size: 14px;&quot;&gt;●&lt;/span&gt;&lt;span style=&quot;font-size: 14px;&quot;&gt;○&lt;/span&gt;" style="text;html=1;align=right;verticalAlign=bottom;resizable=0;points=[];autosize=1;fontColor=default;spacing=0;spacingRight=4;spacingBottom=-2;fontFamily=Helvetica;fontSize=11;labelBackgroundColor=none;" vertex="1" parent="00F6EFA50dviSRzl4qSe-238">
          <mxGeometry x="50" y="47" width="70" height="20" as="geometry" />
        </mxCell>
        <mxCell id="00F6EFA50dviSRzl4qSe-247" value="" style="group;fontFamily=Helvetica;fontSize=11;fontColor=default;labelBackgroundColor=none;" vertex="1" connectable="0" parent="1">
          <mxGeometry x="-580" y="-1100" width="120" height="75" as="geometry" />
        </mxCell>
        <mxCell id="00F6EFA50dviSRzl4qSe-248" value="Emuin&#39;s Candlelight" style="rounded=1;whiteSpace=wrap;html=1;strokeColor=#000000;fillColor=#3A8EED;fontColor=#000000;fontStyle=1;fontFamily=Helvetica;fontSize=11;labelBackgroundColor=none;" vertex="1" parent="00F6EFA50dviSRzl4qSe-247">
          <mxGeometry y="7" width="120" height="60" as="geometry" />
        </mxCell>
        <mxCell id="00F6EFA50dviSRzl4qSe-249" value="&lt;font style=&quot;font-size: 10px;&quot;&gt;A/W&amp;nbsp;&lt;/font&gt;&lt;span style=&quot;font-size: 14px;&quot;&gt;●&lt;/span&gt;&lt;span style=&quot;font-size: 14px;&quot;&gt;○&lt;/span&gt;&lt;span style=&quot;font-size: 14px;&quot;&gt;○&lt;/span&gt;&lt;span style=&quot;font-size: 14px;&quot;&gt;○&lt;/span&gt;" style="text;html=1;align=right;verticalAlign=bottom;resizable=0;points=[];autosize=1;fontColor=default;spacing=0;spacingRight=4;spacingBottom=-2;fontFamily=Helvetica;fontSize=11;labelBackgroundColor=none;" vertex="1" parent="00F6EFA50dviSRzl4qSe-247">
          <mxGeometry x="40" y="47" width="80" height="20" as="geometry" />
        </mxCell>
        <mxCell id="00F6EFA50dviSRzl4qSe-250" value="" style="group;fontFamily=Helvetica;fontSize=11;fontColor=default;labelBackgroundColor=none;" vertex="1" connectable="0" parent="1">
          <mxGeometry x="-420" y="-1020" width="120" height="75" as="geometry" />
        </mxCell>
        <mxCell id="00F6EFA50dviSRzl4qSe-251" value="Relight" style="rounded=1;whiteSpace=wrap;html=1;strokeColor=#000000;fillColor=#3A8EED;fontColor=#000000;fontStyle=1;fontFamily=Helvetica;fontSize=11;labelBackgroundColor=none;" vertex="1" parent="00F6EFA50dviSRzl4qSe-250">
          <mxGeometry y="7" width="120" height="60" as="geometry" />
        </mxCell>
        <mxCell id="00F6EFA50dviSRzl4qSe-252" value="&lt;font style=&quot;font-size: 10px;&quot;&gt;M&amp;nbsp;&lt;/font&gt;&lt;span style=&quot;font-size: 14px;&quot;&gt;●&lt;/span&gt;&lt;span style=&quot;font-size: 14px;&quot;&gt;●&lt;/span&gt;&lt;span style=&quot;font-size: 14px;&quot;&gt;○&lt;/span&gt;&lt;span style=&quot;font-size: 14px;&quot;&gt;○&lt;/span&gt;" style="text;html=1;align=right;verticalAlign=bottom;resizable=0;points=[];autosize=1;fontColor=default;spacing=0;spacingRight=4;spacingBottom=-2;fontFamily=Helvetica;fontSize=11;labelBackgroundColor=none;" vertex="1" parent="00F6EFA50dviSRzl4qSe-250">
          <mxGeometry x="50" y="47" width="70" height="20" as="geometry" />
        </mxCell>
        <mxCell id="00F6EFA50dviSRzl4qSe-253" value="&lt;font style=&quot;font-size: 10px;&quot; color=&quot;#000000&quot;&gt;&lt;i style=&quot;font-size: 10px;&quot;&gt;Circle 50&lt;/i&gt;&lt;/font&gt;" style="text;html=1;align=right;verticalAlign=middle;resizable=0;points=[];autosize=1;strokeColor=none;fillColor=none;fontSize=11;fontFamily=Helvetica;fontColor=default;labelBackgroundColor=none;" vertex="1" parent="00F6EFA50dviSRzl4qSe-250">
          <mxGeometry x="56" width="60" height="30" as="geometry" />
        </mxCell>
        <mxCell id="00F6EFA50dviSRzl4qSe-254" value="" style="group;fontFamily=Helvetica;fontSize=11;fontColor=default;labelBackgroundColor=none;" vertex="1" connectable="0" parent="1">
          <mxGeometry x="-580" y="-1020" width="120" height="75" as="geometry" />
        </mxCell>
        <mxCell id="00F6EFA50dviSRzl4qSe-255" value="Rite of Forebearance" style="rounded=1;whiteSpace=wrap;html=1;strokeColor=#000000;fillColor=#3A8EED;fontColor=#000000;fontStyle=1;fontFamily=Helvetica;fontSize=11;labelBackgroundColor=none;" vertex="1" parent="00F6EFA50dviSRzl4qSe-254">
          <mxGeometry y="7" width="120" height="60" as="geometry" />
        </mxCell>
        <mxCell id="00F6EFA50dviSRzl4qSe-256" value="&lt;font style=&quot;font-size: 10px;&quot;&gt;D/U&amp;nbsp;&lt;/font&gt;&lt;span style=&quot;font-size: 14px;&quot;&gt;●&lt;/span&gt;&lt;span style=&quot;font-size: 14px;&quot;&gt;○&lt;/span&gt;&lt;span style=&quot;font-size: 14px;&quot;&gt;○&lt;/span&gt;&lt;span style=&quot;font-size: 14px;&quot;&gt;○&lt;/span&gt;" style="text;html=1;align=right;verticalAlign=bottom;resizable=0;points=[];autosize=1;fontColor=default;spacing=0;spacingRight=4;spacingBottom=-2;fontFamily=Helvetica;fontSize=11;labelBackgroundColor=none;" vertex="1" parent="00F6EFA50dviSRzl4qSe-254">
          <mxGeometry x="40" y="47" width="80" height="20" as="geometry" />
        </mxCell>
        <mxCell id="00F6EFA50dviSRzl4qSe-257" value="" style="group;fontFamily=Helvetica;fontSize=11;fontColor=default;labelBackgroundColor=none;" vertex="1" connectable="0" parent="1">
          <mxGeometry x="-740" y="-1100" width="120" height="75" as="geometry" />
        </mxCell>
        <mxCell id="00F6EFA50dviSRzl4qSe-258" value="Solace" style="rounded=1;whiteSpace=wrap;html=1;strokeColor=#000000;fillColor=#3A8EED;fontColor=#000000;fontStyle=1;fontFamily=Helvetica;fontSize=11;labelBackgroundColor=none;" vertex="1" parent="00F6EFA50dviSRzl4qSe-257">
          <mxGeometry y="7" width="120" height="60" as="geometry" />
        </mxCell>
        <mxCell id="00F6EFA50dviSRzl4qSe-259" value="&lt;font style=&quot;font-size: 10px;&quot;&gt;W&amp;nbsp;&lt;/font&gt;&lt;span style=&quot;font-size: 14px;&quot;&gt;●&lt;/span&gt;&lt;span style=&quot;font-size: 14px;&quot;&gt;○&lt;/span&gt;&lt;span style=&quot;font-size: 14px;&quot;&gt;○&lt;/span&gt;&lt;span style=&quot;font-size: 14px;&quot;&gt;○&lt;/span&gt;" style="text;html=1;align=right;verticalAlign=bottom;resizable=0;points=[];autosize=1;fontColor=default;spacing=0;spacingRight=4;spacingBottom=-2;fontFamily=Helvetica;fontSize=11;labelBackgroundColor=none;" vertex="1" parent="00F6EFA50dviSRzl4qSe-257">
          <mxGeometry x="50" y="47" width="70" height="20" as="geometry" />
        </mxCell>
        <mxCell id="00F6EFA50dviSRzl4qSe-260" value="" style="endArrow=none;html=1;rounded=0;strokeColor=default;align=center;verticalAlign=middle;fontFamily=Helvetica;fontSize=11;fontColor=default;labelBackgroundColor=default;edgeStyle=orthogonalEdgeStyle;curved=1;entryX=1;entryY=0.5;entryDx=0;entryDy=0;exitX=0;exitY=0.5;exitDx=0;exitDy=0;" edge="1" parent="1" source="00F6EFA50dviSRzl4qSe-239" target="00F6EFA50dviSRzl4qSe-217">
          <mxGeometry width="50" height="50" relative="1" as="geometry">
            <mxPoint x="-560" y="-1110" as="sourcePoint" />
            <mxPoint x="-510" y="-1160" as="targetPoint" />
          </mxGeometry>
        </mxCell>
        <mxCell id="00F6EFA50dviSRzl4qSe-261" value="" style="endArrow=none;html=1;rounded=0;strokeColor=default;align=center;verticalAlign=middle;fontFamily=Helvetica;fontSize=11;fontColor=default;labelBackgroundColor=default;edgeStyle=orthogonalEdgeStyle;curved=1;entryX=1;entryY=0.5;entryDx=0;entryDy=0;exitX=0;exitY=0.5;exitDx=0;exitDy=0;" edge="1" parent="1" source="00F6EFA50dviSRzl4qSe-239" target="00F6EFA50dviSRzl4qSe-248">
          <mxGeometry width="50" height="50" relative="1" as="geometry">
            <mxPoint x="-410" y="-1130" as="sourcePoint" />
            <mxPoint x="-450" y="-1223" as="targetPoint" />
          </mxGeometry>
        </mxCell>
        <mxCell id="00F6EFA50dviSRzl4qSe-263" value="" style="endArrow=none;html=1;rounded=0;strokeColor=default;align=center;verticalAlign=middle;fontFamily=Helvetica;fontSize=11;fontColor=default;labelBackgroundColor=default;edgeStyle=orthogonalEdgeStyle;curved=1;entryX=1;entryY=0.5;entryDx=0;entryDy=0;exitX=0;exitY=0.5;exitDx=0;exitDy=0;" edge="1" parent="1" source="00F6EFA50dviSRzl4qSe-236" target="00F6EFA50dviSRzl4qSe-248">
          <mxGeometry width="50" height="50" relative="1" as="geometry">
            <mxPoint x="-410" y="-1130" as="sourcePoint" />
            <mxPoint x="-450" y="-1053" as="targetPoint" />
          </mxGeometry>
        </mxCell>
        <mxCell id="00F6EFA50dviSRzl4qSe-264" value="" style="endArrow=none;html=1;rounded=0;strokeColor=default;align=center;verticalAlign=middle;fontFamily=Helvetica;fontSize=11;fontColor=default;labelBackgroundColor=default;edgeStyle=orthogonalEdgeStyle;curved=1;entryX=1;entryY=0.5;entryDx=0;entryDy=0;exitX=0;exitY=0.5;exitDx=0;exitDy=0;" edge="1" parent="1" source="00F6EFA50dviSRzl4qSe-251" target="00F6EFA50dviSRzl4qSe-248">
          <mxGeometry width="50" height="50" relative="1" as="geometry">
            <mxPoint x="-250" y="-1050" as="sourcePoint" />
            <mxPoint x="-450" y="-1053" as="targetPoint" />
          </mxGeometry>
        </mxCell>
        <mxCell id="00F6EFA50dviSRzl4qSe-265" value="" style="endArrow=none;html=1;rounded=0;strokeColor=default;align=center;verticalAlign=middle;fontFamily=Helvetica;fontSize=11;fontColor=default;labelBackgroundColor=default;edgeStyle=orthogonalEdgeStyle;curved=1;entryX=1;entryY=0.5;entryDx=0;entryDy=0;exitX=0;exitY=0.5;exitDx=0;exitDy=0;" edge="1" parent="1" source="00F6EFA50dviSRzl4qSe-248" target="00F6EFA50dviSRzl4qSe-258">
          <mxGeometry width="50" height="50" relative="1" as="geometry">
            <mxPoint x="-410" y="-973" as="sourcePoint" />
            <mxPoint x="-450" y="-1053" as="targetPoint" />
          </mxGeometry>
        </mxCell>
        <mxCell id="00F6EFA50dviSRzl4qSe-266" value="" style="endArrow=none;html=1;rounded=0;strokeColor=default;align=center;verticalAlign=middle;fontFamily=Helvetica;fontSize=11;fontColor=default;labelBackgroundColor=default;edgeStyle=orthogonalEdgeStyle;curved=1;entryX=1;entryY=0.5;entryDx=0;entryDy=0;exitX=0;exitY=0.5;exitDx=0;exitDy=0;" edge="1" parent="1" source="00F6EFA50dviSRzl4qSe-255" target="00F6EFA50dviSRzl4qSe-258">
          <mxGeometry width="50" height="50" relative="1" as="geometry">
            <mxPoint x="-570" y="-1053" as="sourcePoint" />
            <mxPoint x="-610" y="-1053" as="targetPoint" />
          </mxGeometry>
        </mxCell>
      </root>
    </mxGraphModel>
  </diagram>
</mxfile>
